<?xml version="1.0" encoding="UTF-8" standalone="no"?>
<!-- Created with Inkscape (http://www.inkscape.org/) -->

<svg
   width="108.60391mm"
   height="22.02425mm"
   viewBox="0 0 108.60391 22.02425"
   version="1.1"
   id="svg1"
   xml:space="preserve"
   xmlns="http://www.w3.org/2000/svg"
   xmlns:svg="http://www.w3.org/2000/svg"><defs
     id="defs1" /><g
     id="g9"
     transform="translate(-40.834198,-61.812219)"><path
       d="m 54.719657,63.649862 -4.208528,1.039213 v 0.976684 l 1.735294,0.176734 -1.610754,8.551932 h 3.449919 l 1.267622,-7.554577 c 0.436436,-0.297884 0.84186,-0.519598 1.215947,-0.665076 0.374087,-0.152406 0.717138,-0.22841 1.028878,-0.22841 0.353304,0 0.62665,0.09697 0.820621,0.290939 0.200899,0.187043 0.301274,0.450166 0.301274,0.789616 0,0.05542 -0.01022,0.145571 -0.03101,0.270267 -0.02078,0.117768 -0.05197,0.298072 -0.09353,0.540536 l -1.257288,6.556705 h 3.49126 l 1.257804,-7.512719 c 0.415653,-0.290957 0.823969,-0.519485 1.225765,-0.685747 0.401798,-0.16626 0.744849,-0.249597 1.028878,-0.249597 0.387943,0 0.675437,0.09356 0.86248,0.280603 0.187043,0.187044 0.280603,0.477945 0.280603,0.872815 0,0.103913 -0.01363,0.238882 -0.04134,0.405144 -0.02078,0.16626 -0.05538,0.349972 -0.10387,0.55087 l -0.852144,3.553789 c -0.04849,0.187043 -0.08701,0.37757 -0.114722,0.571541 -0.02078,0.187043 -0.03101,0.384386 -0.03101,0.592212 0,0.561131 0.173487,1.007964 0.519865,1.340486 0.353304,0.325595 0.823993,0.488343 1.412834,0.488343 0.50571,0 1.105069,-0.07941 1.797823,-0.238745 0.69968,-0.166261 1.492974,-0.412345 2.379699,-0.73794 v -1.039213 c -0.353304,0.103913 -0.644207,0.180434 -0.872815,0.228927 -0.228609,0.04849 -0.422543,0.07286 -0.581876,0.07286 -0.381015,0 -0.654877,-0.07993 -0.821139,-0.239261 -0.159333,-0.166261 -0.238745,-0.4362 -0.238745,-0.810287 0,-0.221681 0.02778,-0.519915 0.0832,-0.894002 0.06235,-0.381015 0.148576,-0.821033 0.259416,-1.319816 l 0.550871,-2.555917 c 0.04849,-0.200898 0.08309,-0.384609 0.103869,-0.55087 0.02771,-0.173189 0.04134,-0.322306 0.04134,-0.447001 0,-0.727392 -0.217788,-1.312603 -0.654224,-1.755966 -0.436434,-0.443362 -1.011422,-0.665075 -1.724959,-0.665075 -0.637334,0 -1.330253,0.183711 -2.078427,0.55087 -0.741247,0.360233 -1.524316,0.900626 -2.348693,1.62109 -0.04157,-0.720464 -0.262762,-1.260857 -0.664559,-1.62109 -0.401798,-0.367159 -0.976785,-0.55087 -1.72496,-0.55087 -0.623478,0 -1.312989,0.190526 -2.06809,0.571541 -0.755102,0.381015 -1.524024,0.928224 -2.306836,1.64176 l 0.488342,-2.213301 z"
       style="font-style:italic;font-weight:900;font-size:90px;font-family:Charter;display:inline;opacity:1;fill:#0000ff;stroke-width:1.1207"
       id="path5" /><path
       d="m 47.557304,69.174589 c -0.956001,0 -1.880855,0.190527 -2.774508,0.571541 -0.886725,0.381015 -1.648831,0.914076 -2.286165,1.599903 -0.533421,0.568058 -0.94566,1.236605 -1.236617,2.005562 -0.284029,0.768957 -0.425814,1.576398 -0.425814,2.421558 0,1.337015 0.37083,2.407062 1.112077,3.210656 0.741247,0.796668 1.731882,1.19476 2.971911,1.19476 0.824378,0 1.662488,-0.162748 2.514576,-0.488343 0.859015,-0.332522 1.745867,-0.830989 2.660302,-1.496032 v -1.506885 c -0.367159,0.228609 -0.713618,0.432766 -1.039213,0.612882 -0.318666,0.173189 -0.595937,0.308675 -0.831473,0.40566 -0.31174,0.117768 -0.592418,0.203996 -0.84181,0.259416 -0.249391,0.05542 -0.488143,0.0832 -0.716752,0.0832 -0.692754,0 -1.233147,-0.24216 -1.621089,-0.727087 -0.381015,-0.491856 -0.571542,-1.174551 -0.571542,-2.047421 0,-1.025276 0.187119,-1.973984 0.561206,-2.846854 0.374088,-0.87287 0.876479,-1.53801 1.506885,-1.995227 l 1.548226,2.742985 c 0.727392,-0.05542 1.305787,-0.266394 1.735295,-0.633553 0.436435,-0.36716 0.65474,-0.838365 0.65474,-1.413351 0,-0.637334 -0.249492,-1.122169 -0.748275,-1.454691 -0.498783,-0.332522 -1.222887,-0.498678 -2.17196,-0.498678 z"
       style="font-style:italic;font-weight:900;font-size:90px;font-family:Charter;display:inline;opacity:1;fill:#0000ff;stroke-width:1.1207"
       id="path4" /><path
       d="m 74.515865,70.482003 -4.281392,0.894002 v 0.976685 l 1.828829,0.238745 -1.080555,5.123201 c -0.09006,0.42258 -0.159246,0.792893 -0.207739,1.11156 -0.04849,0.318667 -0.07286,0.557936 -0.07286,0.717269 0,0.616551 0.173489,1.077016 0.519865,1.381828 0.346378,0.297884 0.876032,0.447001 1.589567,0.447001 0.519566,0 1.118925,-0.076 1.797823,-0.22841 0.678899,-0.152406 1.472192,-0.388266 2.3797,-0.706933 v -1.039213 c -0.429507,0.103913 -0.779374,0.180433 -1.049548,0.228926 -0.270173,0.04849 -0.481664,0.07286 -0.63407,0.07286 -0.290956,0 -0.519485,-0.08674 -0.685746,-0.259932 -0.166262,-0.173189 -0.249597,-0.408533 -0.249597,-0.706417 0,-0.214754 0.01755,-0.478394 0.05219,-0.790133 0.03464,-0.311739 0.08679,-0.650866 0.156063,-1.018026 l 1.277958,-6.443017 z"
       style="font-style:italic;font-weight:900;font-size:90px;font-family:Charter;display:inline;opacity:1;fill:#0000ff;stroke-width:1.1207"
       id="path9" /><path
       d="m 74.941679,65.348983 c -0.623477,0 -1.146316,0.197342 -1.568897,0.592212 -0.415652,0.394869 -0.623734,0.886521 -0.623734,1.475362 0,0.457217 0.159339,0.834863 0.478007,1.132747 0.325594,0.290957 0.748574,0.436666 1.268139,0.436666 0.658116,0 1.195102,-0.190527 1.610755,-0.571541 0.415653,-0.381015 0.623218,-0.869259 0.623218,-1.465027 0,-0.512638 -0.155933,-0.907839 -0.467672,-1.184941 -0.304813,-0.277101 -0.74483,-0.415478 -1.319816,-0.415478 z"
       style="font-style:italic;font-weight:900;font-size:90px;font-family:Charter;display:inline;opacity:1;fill:#0000ff;stroke-width:1.1207"
       id="path7" /></g><path
     id="path2-1-6-5"
     d="m 51.819962,0.0122318 c -1.85769,0 -2.79875,1.10809 -2.79875,2.6032 0,1.55622 1.10402,2.48506 2.57061,2.48506 0.6559,0 1.2629,-0.14666 1.80881,-0.4522 l 0.0815,-0.71292 -0.0815,-0.0489 c -0.48887,0.59479 -1.01033,0.81885 -1.67029,0.81885 -0.94921,0 -1.72733,-0.79034 -1.72733,-2.14694 0,-1.37289 0.65589,-2.15507 1.8414,-2.15507 0.64366,0 1.13254,0.1874 1.37289,0.67219 h 0.0693 l 0.21592,-0.70071 c -0.57442,-0.26073 -1.09995,-0.36258 -1.68252,-0.36258 z m 3.04929,0.0611 c 0.0489,0.56627 0.0693,1.03069 0.0693,1.72324 0,1.25476 -0.0122,2.24879 -0.0611,3.20207 0.18333,-0.0163 0.32999,-0.0448 0.50924,-0.0448 0.10592,0 0.19962,0.008 0.28517,0.0244 l 0.20777,0.0204 c -0.057,-0.6233 -0.0611,-1.09179 -0.0611,-1.57251 v -0.84737 c 0.1548,0 0.81884,-0.0285 1.22623,-0.0285 0.15073,0 0.7333,0.008 1.16514,0.0285 l -0.008,1.21401 c 0,0.19147 -0.057,1.1692 -0.057,1.20587 0.15072,-0.0163 0.32998,-0.0448 0.48885,-0.0448 0.16296,0 0.35036,0.0285 0.521468,0.0448 -0.0489,-0.30961 -0.0693,-0.76181 -0.0693,-1.68659 0,-1.91878 0.0489,-2.90466 0.0978,-3.23872 -0.0855,0.0122 -0.452202,0.0407 -0.501092,0.0407 -0.0937,0 -0.3748,-0.0204 -0.52553,-0.0407 0.0448,0.60293 0.053,1.48697 0.053,2.04508 -0.0896,0 -0.87181,0.0285 -1.30363,0.0285 -0.29332,0 -0.74552,-0.008 -1.08773,-0.0285 0,-0.94106 0.0122,-1.60918 0.0611,-2.04508 -0.057,0.0122 -0.4359,0.0407 -0.49294,0.0407 -0.0367,0 -0.19554,0 -0.51738,-0.0407 z m 6.03849,0 c 0.0448,0.63553 0.0652,1.8862 0.0652,2.41988 0,0.66811 -0.0204,1.74362 -0.0652,2.50543 0.51331,-0.0285 0.9207,-0.0448 1.35253,-0.0448 0.43591,0 0.87587,0.0163 1.31178,0.0448 -0.0285,-0.0774 -0.0326,-0.15073 -0.0326,-0.25665 0,-0.10999 0.004,-0.17518 0.0326,-0.24036 -0.37887,0.0244 -1.40548,0.0529 -1.71509,0.0529 v -1.94731 c 0.61922,0 1.04698,0.008 1.55213,0.0489 -0.0204,-0.0571 -0.0366,-0.15073 -0.0366,-0.24443 0,-0.0937 0.008,-0.16296 0.0366,-0.25665 -0.20369,0.0285 -0.92883,0.0489 -1.55213,0.0489 v -1.68659 c 0.22813,0 0.52553,0 0.8107,0.008 0.28924,0.004 0.5744,0.0326 0.86365,0.0407 -0.0204,-0.0651 -0.0367,-0.16295 -0.0367,-0.25666 0,-0.0855 0.008,-0.13851 0.0367,-0.23628 -0.95736,0.0326 -1.15697,0.0408 -1.32807,0.0408 -0.25259,0 -0.71293,-0.008 -1.2955,-0.0408 z m 4.21951,2.90059 c 0,0.52961 -0.0163,1.09995 -0.0815,2.02472 0.11,-0.0285 0.19555,-0.0448 0.28925,-0.0448 0.0489,0 0.1711,0.0163 0.32184,0.0448 -0.0855,-0.81885 -0.0855,-2.2284 -0.0855,-3.40983 0.93292,0.85144 2.50543,2.4484 3.43835,3.44649 0.0529,-0.008 0.12221,-0.0163 0.14666,-0.0163 0.0407,0 0.0855,0 0.15073,0.0163 -0.008,-0.81884 -0.0163,-1.65806 -0.0163,-2.47691 0,-0.91255 0.0204,-1.78435 0.0815,-2.48506 -0.0937,0.0285 -0.17925,0.0407 -0.30146,0.0407 -0.12222,0 -0.2037,-0.0122 -0.30962,-0.0407 0.0571,0.56627 0.0855,1.25475 0.0855,1.73547 v 1.67437 c -0.23221,-0.17925 -0.32184,-0.27296 -0.3585,-0.30963 l -1.20179,-1.17734 c -0.57442,-0.56627 -1.24254,-1.27105 -1.83732,-1.92287 -0.0571,0.004 -0.10593,0.0122 -0.16703,0.0122 -0.0611,0 -0.10592,0 -0.1711,-0.0122 0,0.68034 0.0163,2.09397 0.0163,2.9006 z m 6.02627,0 c 0,0.52961 -0.0163,1.09995 -0.0815,2.02472 0.10999,-0.0285 0.19555,-0.0448 0.28924,-0.0448 0.0489,0 0.1711,0.0163 0.32183,0.0448 -0.0855,-0.81885 -0.0855,-2.2284 -0.0855,-3.40983 0.93292,0.85144 2.50544,2.4484 3.43835,3.44649 0.0529,-0.008 0.12223,-0.0163 0.14666,-0.0163 0.0407,0 0.0855,0 0.15074,0.0163 -0.008,-0.81884 -0.0163,-1.65806 -0.0163,-2.47691 0,-0.91255 0.0204,-1.78435 0.0815,-2.48506 -0.0937,0.0285 -0.17925,0.0407 -0.30146,0.0407 -0.12222,0 -0.2037,-0.0122 -0.30962,-0.0407 0.0571,0.56627 0.0855,1.25475 0.0855,1.73547 v 1.67437 c -0.2322,-0.17925 -0.32183,-0.27296 -0.3585,-0.30963 l -1.20179,-1.17734 c -0.57442,-0.56627 -1.24254,-1.27105 -1.83733,-1.92287 -0.0571,0.004 -0.10591,0.0122 -0.16703,0.0122 -0.0611,0 -0.10591,0 -0.1711,-0.0122 0,0.68034 0.0163,2.09397 0.0163,2.9006 z M 78.642322,1.7961349e-6 C 78.491592,0.5010918 78.300112,0.9899518 77.277572,3.2591018 l -0.78218,1.73954 c 0.0937,-0.0163 0.1874,-0.0448 0.32591,-0.0448 0.0571,0 0.13443,0.008 0.3422,0.0448 0.0855,-0.30961 0.23629,-0.74552 0.57442,-1.56029 0.0651,0 0.56219,-0.0285 0.87182,-0.0285 0.32183,0 0.81477,0.0244 0.90846,0.0285 0.2037,0.48479 0.41147,1.0592 0.60702,1.56029 0.20776,-0.0204 0.39108,-0.0448 0.52959,-0.0448 0.0775,0 0.1711,0.008 0.55812,0.0448 -0.76588,-1.68658 -1.53585,-3.40983 -2.10211,-4.9986400038651 C 79.045722,0.0204018 78.968232,0.0367018 78.882682,0.0367018 c -0.0896,0 -0.15888,-0.008 -0.24036,-0.036700003865 z M 78.638322,1.2343918 l 0.67219,1.7599 c -0.1711,0.0204 -0.46034,0.0285 -0.65996,0.0285 -0.11407,0 -0.24443,0 -0.74552,-0.0285 z m 3.74695,-1.16106 c 0.0448,0.27295 0.0733,0.61515 0.0733,2.11026 0,1.16921 -0.0204,2.1836 -0.0774,2.81505 0.12629,-0.008 0.35849,-0.0448 0.51737,-0.0448 0.0897,0 0.22814,0.0163 0.50109,0.0448 -0.0489,-0.65182 -0.0733,-0.97773 -0.0733,-2.96578 0,-0.74551 0.0244,-1.60917 0.0815,-1.95953 -0.20369,0.0285 -0.36664,0.0407 -0.50516,0.0407 -0.0571,0 -0.41553,-0.0285 -0.51738,-0.0407 z m -32.74068,8.40236 c -0.0855,0.86774 -0.59479,4.3142302 -0.7333,4.9253202 0.11814,-0.0285 0.1874,-0.0448 0.30554,-0.0448 0.0896,0 0.20777,0.0285 0.32999,0.0448 0.057,-1.12032 0.17925,-2.19582 0.30146,-3.1817 0.32999,0.56219 0.74552,1.3566 1.12439,2.06953 0.35443,0.65996 0.5459,1.03476 0.58257,1.11217 0.0367,0 0.0855,-0.0163 0.13851,-0.0163 0.0407,0 0.0937,0 0.14258,0.0163 0.33813,-0.79849 1.14068,-2.28952 1.71103,-3.2591 0.004,0.0611 0.0285,0.30554 0.11407,1.0755 0.0937,0.827 0.15073,1.45845 0.19962,2.1836 0.29332,-0.0367 0.38701,-0.0448 0.48071,-0.0448 0.0815,0 0.23221,0.008 0.52553,0.0448 -0.0937,-0.35036 -0.43998,-2.94542 -0.49701,-3.5320502 l -0.13444,-1.39327 c -0.0489,0.0122 -0.10184,0.0204 -0.15073,0.0204 -0.057,0 -0.11407,-0.0163 -0.15888,-0.0204 -0.55405,1.12032 -1.04291,2.0654602 -1.98805,3.7113002 -1.07143,-1.89435 -1.22216,-2.1958102 -1.75991,-3.2876202 l -0.20777,-0.42368 c -0.0448,0.004 -0.10185,0.0204 -0.15073,0.0204 -0.053,0 -0.12222,-0.008 -0.17518,-0.0204 z m 8.20987,-0.0733 c -0.15073,0.50109 -0.34221,0.98995 -1.36475,3.2590902 l -0.78218,1.73955 c 0.0937,-0.0163 0.1874,-0.0448 0.32591,-0.0448 0.057,0 0.13444,0.008 0.3422,0.0448 0.0855,-0.30961 0.23629,-0.74551 0.57442,-1.5603 0.0652,0 0.56219,-0.0285 0.87181,-0.0285 0.32183,0 0.81477,0.0244 0.90847,0.0285 0.20369,0.48479 0.411458,1.05921 0.60701,1.5603 0.20777,-0.0204 0.39109,-0.0448 0.5296,-0.0448 0.0774,0 0.17111,0.008 0.55812,0.0448 -0.76589,-1.68658 -1.53585,-3.4098302 -2.10212,-4.9986402 -0.0652,0.0204 -0.14258,0.0367 -0.22813,0.0367 -0.0896,0 -0.15888,-0.008 -0.24036,-0.0367 z m -0.004,1.23438 0.67219,1.7599102 c -0.17111,0.0204 -0.46035,0.0285 -0.65997,0.0285 -0.11407,0 -0.24443,0 -0.74552,-0.0285 z m 2.67755,-1.16106 c 0.0285,0.0937 0.0367,0.17926 0.0367,0.26481 0,0.0855 -0.0163,0.1711 -0.0367,0.2648 0.31776,-0.0285 0.87588,-0.0489 1.34438,-0.0489 h 0.13443 c 0.008,0.20777 0.0163,0.56627 0.0163,0.68849 l 0.008,2.1102602 c 0,0.63145 -0.0651,1.34438 -0.0733,1.64585 0.32184,-0.0285 0.42368,-0.0448 0.48072,-0.0448 0.0774,0 0.1874,0.008 0.53368,0.0448 -0.0367,-0.29333 -0.0529,-0.61923 -0.0529,-0.9044 V 9.6652818 c 0,-0.12629 0.008,-0.55813 0.0163,-0.70886 0.4644,0 0.99808,0.004 1.42991,0.0489 -0.0326,-0.13444 -0.0366,-0.19555 -0.0366,-0.25258 0,-0.0651 0.0122,-0.1711 0.0366,-0.27703 -0.71292,0.0326 -1.34437,0.0407 -1.91063,0.0407 -0.79848,0 -1.66214,-0.0285 -1.92695,-0.0407 z m 5.09437,0 c 0.0489,0.56628 0.0693,1.0307 0.0693,1.7232502 0,1.25476 -0.0122,2.24879 -0.0611,3.20207 0.18332,-0.0163 0.32998,-0.0448 0.50923,-0.0448 0.10593,0 0.19962,0.008 0.28518,0.0244 l 0.20776,0.0204 c -0.0571,-0.6233 -0.0611,-1.09179 -0.0611,-1.57252 v -0.84736 c 0.15481,0 0.81885,-0.0285 1.22624,-0.0285 0.15073,0 0.73329,0.008 1.16512,0.0285 l -0.008,1.21401 c 0,0.19147 -0.057,1.1692 -0.057,1.20587 0.15074,-0.0163 0.32999,-0.0448 0.48887,-0.0448 0.16295,0 0.35035,0.0285 0.52145,0.0448 -0.0489,-0.30961 -0.0693,-0.76181 -0.0693,-1.68658 0,-1.9187902 0.0489,-2.9046802 0.0978,-3.2387402 -0.0855,0.0122 -0.4522,0.0407 -0.50108,0.0407 -0.0937,0 -0.3748,-0.0204 -0.52553,-0.0407 0.0448,0.60294 0.0529,1.48698 0.0529,2.0450902 -0.0897,0 -0.8718,0.0285 -1.30364,0.0285 -0.29332,0 -0.74551,-0.008 -1.08772,-0.0285 0,-0.9410602 0.0122,-1.6091802 0.0611,-2.0450902 -0.057,0.0122 -0.4359,0.0407 -0.49294,0.0407 -0.0367,0 -0.19554,0 -0.51738,-0.0407 z m 6.03849,0 c 0.0448,0.63554 0.0652,1.8862102 0.0652,2.4198902 0,0.66811 -0.0204,1.74362 -0.0652,2.50543 0.51331,-0.0285 0.9207,-0.0448 1.35253,-0.0448 0.4359,0 0.87588,0.0163 1.31178,0.0448 -0.0285,-0.0775 -0.0326,-0.15073 -0.0326,-0.25665 0,-0.11 0.004,-0.17518 0.0326,-0.24036 -0.37886,0.0244 -1.40548,0.0529 -1.7151,0.0529 v -1.94731 c 0.61923,0 1.04699,0.008 1.55215,0.0489 -0.0204,-0.0571 -0.0367,-0.15074 -0.0367,-0.24443 0,-0.0937 0.008,-0.16296 0.0367,-0.25665 -0.2037,0.0285 -0.92884,0.0489 -1.55215,0.0489 V 8.9197418 c 0.22814,0 0.52553,0 0.81071,0.008 0.28924,0.004 0.57441,0.0326 0.86366,0.0407 -0.0204,-0.0651 -0.0367,-0.16296 -0.0367,-0.25666 0,-0.0855 0.008,-0.13851 0.0367,-0.23628 -0.95737,0.0326 -1.15699,0.0407 -1.32809,0.0407 -0.25258,0 -0.71292,-0.008 -1.29549,-0.0407 z m 4.56172,0 c -0.0855,0.86774 -0.59479,4.3142402 -0.7333,4.9253202 0.11814,-0.0285 0.1874,-0.0448 0.30554,-0.0448 0.0897,0 0.20777,0.0285 0.32999,0.0448 0.0571,-1.12031 0.17925,-2.19582 0.30146,-3.18169 0.32998,0.56219 0.74552,1.3566 1.12439,2.06953 0.35443,0.65996 0.5459,1.03475 0.58256,1.11216 0.0367,0 0.0855,-0.0163 0.13851,-0.0163 0.0407,0 0.0937,0 0.14259,0.0163 0.33813,-0.79848 1.14069,-2.28951 1.71103,-3.2591 0.004,0.0611 0.0285,0.30555 0.11407,1.0755 0.0937,0.827 0.15073,1.45845 0.19961,2.1836 0.29333,-0.0367 0.38702,-0.0448 0.48073,-0.0448 0.0815,0 0.2322,0.008 0.52552,0.0448 -0.0937,-0.35036 -0.43998,-2.94541 -0.49701,-3.5320502 l -0.13444,-1.39327 c -0.0489,0.0122 -0.10184,0.0204 -0.15073,0.0204 -0.0571,0 -0.11407,-0.0163 -0.15888,-0.0204 -0.55405,1.12033 -1.04291,2.0654602 -1.98805,3.7113002 -1.07143,-1.89434 -1.22216,-2.1958102 -1.75992,-3.2876102 l -0.20776,-0.42369 c -0.0448,0.004 -0.10185,0.0204 -0.15074,0.0204 -0.0529,0 -0.12221,-0.008 -0.17517,-0.0204 z m 8.20987,-0.0733 c -0.15073,0.50109 -0.34221,0.98996 -1.36475,3.2591002 l -0.78218,1.73955 c 0.0937,-0.0163 0.1874,-0.0448 0.32591,-0.0448 0.0571,0 0.13443,0.008 0.3422,0.0448 0.0855,-0.30962 0.23629,-0.74552 0.57443,-1.5603 0.0651,0 0.56218,-0.0285 0.8718,-0.0285 0.32183,0 0.81478,0.0244 0.90847,0.0285 0.2037,0.48479 0.41147,1.05921 0.607,1.5603 0.20778,-0.0204 0.3911,-0.0448 0.52961,-0.0448 0.0774,0 0.1711,0.008 0.55812,0.0448 -0.76589,-1.68658 -1.53585,-3.4098302 -2.10212,-4.9986502 -0.0651,0.0204 -0.14258,0.0367 -0.22813,0.0367 -0.0896,0 -0.15888,-0.008 -0.24036,-0.0367 z m -0.004,1.23439 0.67219,1.7599102 c -0.1711,0.0204 -0.46034,0.0285 -0.65997,0.0285 -0.11406,0 -0.24443,0 -0.74552,-0.0285 z m 2.67756,-1.16106 c 0.0285,0.0937 0.0366,0.17926 0.0366,0.2648 0,0.0855 -0.0163,0.1711 -0.0366,0.26481 0.31776,-0.0285 0.87587,-0.0489 1.34438,-0.0489 h 0.13443 c 0.008,0.20776 0.0164,0.56626 0.0164,0.68849 l 0.008,2.1102602 c 0,0.63144 -0.0651,1.34437 -0.0733,1.64584 0.32183,-0.0285 0.42369,-0.0448 0.48071,-0.0448 0.0775,0 0.1874,0.008 0.53368,0.0448 -0.0367,-0.29332 -0.0529,-0.61923 -0.0529,-0.90439 V 9.6653118 c 0,-0.1263 0.008,-0.55813 0.0164,-0.70886 0.46443,0 0.99809,0.004 1.42993,0.0489 -0.0326,-0.13444 -0.0367,-0.19555 -0.0367,-0.25259 0,-0.0651 0.0122,-0.1711 0.0367,-0.27702 -0.71293,0.0326 -1.34438,0.0407 -1.91065,0.0407 -0.79848,0 -1.66214,-0.0285 -1.92693,-0.0407 z m 5.13409,0 c 0.0448,0.27295 0.0733,0.61516 0.0733,2.1102702 0,1.1692 -0.0204,2.18359 -0.0773,2.81505 0.12629,-0.008 0.3585,-0.0448 0.51738,-0.0448 0.0896,0 0.22814,0.0163 0.50108,0.0448 -0.0489,-0.65182 -0.0733,-0.97774 -0.0733,-2.96579 0,-0.7455102 0.0244,-1.6091702 0.0815,-1.9595302 -0.20369,0.0285 -0.36664,0.0407 -0.50516,0.0407 -0.0571,0 -0.41553,-0.0285 -0.51739,-0.0407 z m 5.37955,-0.0611 c -1.85768,0 -2.79875,1.10809 -2.79875,2.6032002 0,1.55622 1.10402,2.48507 2.57061,2.48507 0.65589,0 1.2629,-0.14666 1.8088,-0.45221 l 0.0815,-0.71292 -0.0815,-0.0489 c -0.48886,0.59478 -1.01032,0.81884 -1.67029,0.81884 -0.94921,0 -1.72732,-0.79033 -1.72732,-2.14693 0,-1.3728902 0.65589,-2.1550802 1.84139,-2.1550802 0.64368,0 1.13254,0.1874 1.37289,0.67219 h 0.0693 l 0.21592,-0.7007 c -0.57442,-0.26073 -1.09995,-0.36258 -1.68251,-0.36258 z m 4.504678,-0.0122 c -0.15073,0.50109 -0.3422,0.98995 -1.36475,3.2591002 l -0.782178,1.73954 c 0.0937,-0.0163 0.187398,-0.0448 0.325908,-0.0448 0.0571,0 0.13444,0.008 0.34221,0.0448 0.0855,-0.30961 0.23628,-0.74551 0.57442,-1.5603 0.0651,0 0.56219,-0.0285 0.8718,-0.0285 0.32184,0 0.81478,0.0244 0.90847,0.0285 0.2037,0.4848 0.41147,1.05921 0.60701,1.5603 0.20777,-0.0204 0.39109,-0.0448 0.5296,-0.0448 0.0775,0 0.17111,0.008 0.55813,0.0448 -0.76589,-1.68658 -1.53586,-3.4098202 -2.10213,-4.9986402 -0.0651,0.0204 -0.14258,0.0367 -0.22813,0.0367 -0.0896,0 -0.15888,-0.008 -0.24036,-0.0367 z m -0.004,1.23439 0.67219,1.7599002 c -0.1711,0.0204 -0.46034,0.0285 -0.65996,0.0285 -0.11407,0 -0.24444,0 -0.74553,-0.0285 z m 3.74186,-1.16106 c 0.004,0.30554 0.0489,1.6214002 0.0489,1.6988002 v 1.28735 c 0,0.37886 -0.0367,1.2629 -0.0489,1.93916 0.66811,-0.0367 1.17735,-0.0448 1.3566,-0.0448 0.17925,0.008 0.6233,0.008 1.38511,0.0448 -0.0285,-0.10592 -0.0366,-0.13444 -0.0366,-0.25258 0,-0.12222 0.008,-0.19147 0.0366,-0.27703 -0.17924,0.0326 -0.92477,0.0611 -1.61733,0.0611 h -0.17925 c -0.0122,-0.55812 -0.0204,-1.11217 -0.0204,-1.66622 0,-0.94513 0.0367,-1.8943402 0.0733,-2.7906002 -0.1874,0.0285 -0.32998,0.0407 -0.50923,0.0407 -0.15481,0 -0.3748,-0.0122 -0.48887,-0.0407 z M 49.278152,16.863882 c 0.0448,0.27294 0.0733,0.615149 0.0733,2.110259 0,1.1692 -0.0204,2.18359 -0.0774,2.81504 0.12629,-0.008 0.3585,-0.0448 0.51738,-0.0448 0.0896,0 0.22814,0.0163 0.50109,0.0448 -0.0489,-0.65182 -0.0733,-0.97773 -0.0733,-2.96577 0,-0.74553 0.0245,-1.609179 0.0815,-1.959529 -0.2037,0.0285 -0.36665,0.0407 -0.50516,0.0407 -0.057,0 -0.41554,-0.0285 -0.51738,-0.0407 z m 2.8619,2.900589 c 0,0.5296 -0.0163,1.09995 -0.0815,2.02471 0.10999,-0.0285 0.19554,-0.0448 0.28924,-0.0448 0.0489,0 0.1711,0.0163 0.32184,0.0448 -0.0856,-0.81885 -0.0856,-2.2284 -0.0856,-3.40982 0.93291,0.85144 2.50543,2.44839 3.43834,3.44649 0.053,-0.008 0.12222,-0.0163 0.14666,-0.0163 0.0407,0 0.0855,0 0.15074,0.0163 -0.008,-0.81885 -0.0163,-1.65807 -0.0163,-2.47691 0,-0.91256 0.0204,-1.78437 0.0815,-2.485059 -0.0937,0.0285 -0.17925,0.0407 -0.30147,0.0407 -0.12222,0 -0.20369,-0.0122 -0.30961,-0.0407 0.057,0.56626 0.0856,1.254739 0.0856,1.735459 v 1.67436 c -0.23221,-0.17925 -0.32184,-0.27295 -0.3585,-0.30961 l -1.2018,-1.17735 c -0.57441,-0.56626 -1.24253,-1.27105 -1.83731,-1.922859 -0.057,0.004 -0.10592,0.0122 -0.16703,0.0122 -0.0611,0 -0.10592,0 -0.1711,-0.0122 0,0.680329 0.0163,2.093959 0.0163,2.900589 z m 7.46944,-2.961709 c -1.07143,0 -1.67436,0.58257 -1.67436,1.438079 0,0.78219 0.36665,1.06328 1.173268,1.38104 l 0.342212,0.13444 c 0.57034,0.22406 0.72107,0.52553 0.72107,0.88403 0,0.51738 -0.37479,0.89626 -0.94921,0.89626 -0.59071,0 -0.86773,-0.30147 -1.10809,-0.81885 h -0.0978 c -0.0448,0.40331 -0.053,0.43182 -0.16703,0.80662 0.5459,0.2811 0.92884,0.36665 1.40956,0.36665 1.0755,0 1.75991,-0.69663 1.75991,-1.57252 0,-0.27294 -0.0815,-0.62737 -0.30148,-0.90031 -0.19553,-0.23629 -0.50516,-0.38703 -0.95734,-0.54591 -0.89218,-0.30962 -1.07143,-0.52145 -1.07143,-0.94107 0,-0.46034 0.32591,-0.774029 0.84736,-0.774029 0.46849,0 0.82699,0.22407 0.94106,0.623299 h 0.10184 c 0.0285,-0.15073 0.0652,-0.28517 0.22407,-0.680339 -0.48072,-0.22405 -0.79848,-0.29739 -1.19364,-0.29739 z m 2.25489,0.0611 c 0.0285,0.0937 0.0367,0.17925 0.0367,0.26479 0,0.0855 -0.0163,0.17111 -0.0367,0.26481 0.31776,-0.0285 0.87587,-0.0489 1.34437,-0.0489 h 0.13443 c 0.008,0.207769 0.0163,0.566259 0.0163,0.688489 l 0.008,2.11026 c 0,0.63145 -0.0651,1.34438 -0.0733,1.64584 0.32185,-0.0285 0.42369,-0.0448 0.48073,-0.0448 0.0774,0 0.18739,0.008 0.53367,0.0448 -0.0366,-0.29332 -0.0529,-0.61923 -0.0529,-0.90439 v -2.83134 c 0,-0.1263 0.008,-0.55813 0.0163,-0.708859 0.46441,0 0.99809,0.004 1.42992,0.0489 -0.0326,-0.13443 -0.0367,-0.19555 -0.0367,-0.25258 0,-0.0651 0.0122,-0.17111 0.0367,-0.27702 -0.71293,0.0326 -1.34438,0.0407 -1.91065,0.0407 -0.79847,0 -1.66213,-0.0285 -1.92693,-0.0407 z m 5.1351,0 c 0.0448,0.27294 0.0733,0.615149 0.0733,2.110259 0,1.16921 -0.0204,2.18359 -0.0775,2.81505 0.12629,-0.008 0.3585,-0.0448 0.51738,-0.0448 0.0897,0 0.22814,0.0163 0.50109,0.0448 -0.0489,-0.65182 -0.0733,-0.97773 -0.0733,-2.96578 0,-0.74552 0.0244,-1.609179 0.0815,-1.959529 -0.2037,0.0285 -0.36665,0.0407 -0.50516,0.0407 -0.0571,0 -0.41554,-0.0285 -0.51739,-0.0407 z m 2.27016,0 c 0.0285,0.0937 0.0367,0.17925 0.0367,0.26479 0,0.0855 -0.0163,0.17111 -0.0367,0.26481 0.31776,-0.0285 0.87589,-0.0489 1.34438,-0.0489 h 0.13444 c 0.008,0.207769 0.0163,0.566259 0.0163,0.688489 l 0.008,2.11026 c 0,0.63145 -0.0652,1.34438 -0.0733,1.64584 0.32183,-0.0285 0.42368,-0.0448 0.48071,-0.0448 0.0774,0 0.1874,0.008 0.53368,0.0448 -0.0367,-0.29332 -0.0529,-0.61923 -0.0529,-0.90439 v -2.83134 c 0,-0.1263 0.008,-0.55813 0.0163,-0.708859 0.46442,0 0.9981,0.004 1.42994,0.0489 -0.0326,-0.13443 -0.0367,-0.19555 -0.0367,-0.25258 0,-0.0651 0.0122,-0.17111 0.0367,-0.27702 -0.71293,0.0326 -1.34438,0.0407 -1.91065,0.0407 -0.79848,0 -1.66214,-0.0285 -1.92695,-0.0407 z m 5.05772,0 c 0.0285,0.42775 0.0367,0.822919 0.0367,1.205859 v 2.13878 c 0,1.08366 0.76589,1.66622 2.06952,1.66622 0.78627,0 1.45031,-0.32999 1.72325,-0.827 0.28517,-0.52146 0.19963,-1.27104 0.24444,-2.46876 0.0204,-0.66812 0.0326,-1.356599 0.0611,-1.715099 -0.11814,0.0326 -0.27702,0.0407 -0.33405,0.0407 -0.0571,0 -0.16703,0 -0.32591,-0.0407 0.0571,0.969569 0.0651,1.943229 0.0651,2.749859 0,0.67627 -0.008,0.96958 -0.22814,1.28327 -0.20776,0.29739 -0.61107,0.48479 -1.06327,0.48479 -0.75367,0 -1.23031,-0.33406 -1.2955,-0.98588 -0.0204,-0.21592 -0.0285,-0.53775 -0.0285,-0.96958 v -0.79033 c 0,-0.40331 0.008,-0.89625 0.0448,-1.772129 -0.17111,0.0285 -0.31776,0.0407 -0.4685,0.0407 -0.16295,0 -0.33405,-0.0204 -0.50108,-0.0407 z m 5.27159,0 c 0.0285,0.0937 0.0366,0.17925 0.0366,0.26479 0,0.0855 -0.0163,0.17111 -0.0366,0.26481 0.31776,-0.0285 0.87588,-0.0489 1.34438,-0.0489 h 0.13443 c 0.008,0.207769 0.0163,0.566259 0.0163,0.688489 l 0.008,2.11026 c 0,0.63145 -0.0651,1.34438 -0.0733,1.64584 0.32185,-0.0285 0.42369,-0.0448 0.48073,-0.0448 0.0774,0 0.18739,0.008 0.53367,0.0448 -0.0367,-0.29332 -0.0529,-0.61923 -0.0529,-0.90439 v -2.83134 c 0,-0.1263 0.008,-0.55813 0.0163,-0.708859 0.46442,0 0.9981,0.004 1.42993,0.0489 -0.0326,-0.13443 -0.0367,-0.19555 -0.0367,-0.25258 0,-0.0651 0.0122,-0.17111 0.0367,-0.27702 -0.71294,0.0326 -1.34438,0.0407 -1.91066,0.0407 -0.79847,0 -1.66213,-0.0285 -1.92693,-0.0407 z m 5.1066,0 c 0.0448,0.635519 0.0651,1.886199 0.0651,2.419879 0,0.66811 -0.0204,1.74361 -0.0651,2.50543 0.5133,-0.0285 0.92069,-0.0448 1.35252,-0.0448 0.43591,0 0.87588,0.0163 1.31179,0.0448 -0.0285,-0.0774 -0.0326,-0.15073 -0.0326,-0.25666 0,-0.10999 0.004,-0.17518 0.0326,-0.24035 -0.37887,0.0244 -1.40548,0.0529 -1.7151,0.0529 v -1.94731 c 0.61923,0 1.04698,0.008 1.55214,0.0489 -0.0204,-0.0571 -0.0367,-0.15073 -0.0367,-0.24443 0,-0.0937 0.008,-0.16296 0.0367,-0.25665 -0.20369,0.0285 -0.92884,0.0489 -1.55214,0.0489 v -1.686589 c 0.22813,0 0.52552,0 0.8107,0.008 0.28924,0.004 0.57441,0.0326 0.86366,0.0407 -0.0204,-0.0651 -0.0367,-0.16295 -0.0367,-0.25665 0,-0.0855 0.008,-0.13851 0.0367,-0.23629 -0.95737,0.0326 -1.15698,0.0407 -1.32809,0.0407 -0.25257,0 -0.71292,-0.008 -1.29548,-0.0407 z m 0,0"
     style="fill:#000000;fill-opacity:1;fill-rule:nonzero;stroke:none;stroke-width:0.347637"
     aria-label="CHENNAI&#10;MATHEMATICAL&#10;INSTITUTE" /><rect
     style="fill:#000000;fill-opacity:1;stroke-width:0.265306"
     id="rect3-8-9"
     width="0.5206424"
     height="21.473907"
     x="42.364143"
     y="0.55034107" /></svg>
