<?xml version="1.0" encoding="UTF-8" standalone="no"?>
<!-- Created with Inkscape (http://www.inkscape.org/) -->
<svg width="180mm" height="60mm" viewBox="0 0 180 60" version="1.1" id="svg1" sodipodi:docname="STEMS-Bold-Bordered.svg" inkscape:version="1.4 (86a8ad7, 2024-10-11)" xmlns:inkscape="http://www.inkscape.org/namespaces/inkscape" xmlns:sodipodi="http://sodipodi.sourceforge.net/DTD/sodipodi-0.dtd" xmlns="http://www.w3.org/2000/svg" xmlns:svg="http://www.w3.org/2000/svg">
  <sodipodi:namedview id="namedview1" pagecolor="#ffffff" bordercolor="#000000" borderopacity="0.25" inkscape:showpageshadow="2" inkscape:pageopacity="0.0" inkscape:pagecheckerboard="0" inkscape:deskcolor="#d1d1d1" inkscape:document-units="mm" inkscape:zoom="1.2294398" inkscape:cx="368.46049" inkscape:cy="163.89578" inkscape:window-width="1920" inkscape:window-height="1001" inkscape:window-x="-9" inkscape:window-y="-9" inkscape:window-maximized="1" inkscape:current-layer="svg1"/>
  <defs id="defs1"/>
  <g inkscape:groupmode="layer" id="layer2" inkscape:label="Back">
    <path d="m 171.98027,11.094131 c -2.40772,-0.79375 -4.65667,-1.1906197 -6.72042,-1.1906197 -2.06375,0 -3.75708,0.5027097 -5.08,1.5345797 -1.32293,1.03188 -1.95792,2.27542 -1.95792,3.73063 0,2.0902 1.16417,3.73062 3.46604,4.92125 l 7.30251,3.88937 c 4.07458,2.19604 6.11187,5.00063 6.11187,8.466668 0,2.8575 -1.05833,5.13291 -3.14854,6.82625 -2.11667,1.69333 -5.08,2.54 -8.89,2.54 -3.81,0 -7.27604,-0.66146 -10.2923,-1.98438 l 1.29646,-3.4925 c 2.83104,1.19063 5.60916,1.79917 8.36083,1.79917 2.75167,0 4.7625,-0.50271 6.08542,-1.53458 1.32291,-1.03188 1.95791,-2.27542 1.95791,-3.73063 0,-2.090208 -1.16416,-3.730618 -3.46604,-4.921248 l -7.3025,-3.88937 c -4.07458,-2.19605 -6.11187,-5.00063 -6.11187,-8.46667 0,-2.8575 1.05833,-5.13292 3.14854,-6.8262491 2.11666,-1.6933297 4.92125,-2.5399997 8.49312,-2.5399997 2.40771,0 5.13292,0.47625 8.12271,1.4552103 z" id="path6-8" style="isolation:isolate;stroke:#ffffff;stroke-width:7.9375;stroke-dasharray:none;stroke-opacity:1" inkscape:label="S2"/>
    <path d="m 129.03838,40.674549 h -5.31813 L 113.05754,12.205381 h -0.26458 L 111.814,40.674549 h -4.445 l 1.40229,-34.3429168 h 6.6675 l 11.13896,29.7127068 h 0.21167 L 137.92838,6.3316322 h 6.6675 l 1.40229,34.3429168 H 141.024 l -0.97896,-28.469168 h -0.26458 z" id="path5-5" style="isolation:isolate;stroke:#ffffff;stroke-width:7.9375;stroke-dasharray:none;stroke-opacity:1" inkscape:label="M"/>
    <path d="M 76.756701,40.674549 V 6.2787122 h 21.007914 l -0.97896,3.7835388 H 81.2017 v 11.35063 h 14.710825 v 3.62479 H 81.2017 v 11.853328 h 17.541875 v 3.78355 z" id="path4-7" style="isolation:isolate;stroke:#ffffff;stroke-width:7.9375;stroke-dasharray:none;stroke-opacity:1" inkscape:label="E"/>
    <path d="m 25.480452,11.094131 c -2.407709,-0.79375 -4.656667,-1.1906197 -6.720417,-1.1906197 -2.06375,0 -3.757083,0.5027097 -5.08,1.5345797 -1.322916,1.03188 -1.957916,2.27542 -1.957916,3.73063 0,2.0902 1.164166,3.73062 3.466041,4.92125 l 7.3025,3.88937 c 4.074583,2.19604 6.111875,5.00063 6.111875,8.466668 0,2.8575 -1.058333,5.13291 -3.148542,6.82625 -2.116666,1.69333 -5.08,2.54 -8.889999,2.54 -3.81,0 -7.2760425,-0.66146 -10.2922925,-1.98438 l 1.296458,-3.4925 c 2.8310425,1.19063 5.6091675,1.79917 8.3608345,1.79917 2.751666,0 4.762499,-0.50271 6.085416,-1.53458 1.322917,-1.03188 1.957917,-2.27542 1.957917,-3.73063 0,-2.090208 -1.164167,-3.730618 -3.466042,-4.921248 l -7.328958,-3.91583 c -4.0745835,-2.19604 -6.1118755,-5.00063 -6.1118755,-8.46667 0,-2.8575 1.058333,-5.13292 3.1485425,-6.8262491 2.116666,-1.6933297 4.92125,-2.5399997 8.493125,-2.5399997 2.407708,0 5.132916,0.47625 8.122708,1.4552103 z" id="path7-1" style="isolation:isolate;fill:#000000;fill-opacity:1;stroke:#ffffff;stroke-width:7.9375;stroke-dasharray:none;stroke-opacity:1" inkscape:label="S1"/>
  </g>
  <g inkscape:label="Top Text" inkscape:groupmode="layer" id="layer1">
    <path d="m 51.301635,51.502659 c 0,-0.0529 0.05292,-0.10584 0.132291,-0.10584 0.873125,0.21167 6.0325,1.37584 8.307917,1.85209 2.487083,0.52916 10.900833,2.16958 19.261666,1.79916 8.360838,-0.37041 32.199781,-4.28625 34.581031,-4.49791 2.38125,-0.21167 9.68375,-1.16417 18.99708,-1.08479 9.31334,0.0794 15.34584,1.00541 17.9123,1.32291 2.56645,0.3175 10.6627,1.69334 14.73729,2.80459 4.07458,1.11125 1.00541,0.71437 1.00541,0.71437 0,0 -5.10645,-0.39687 -6.11187,-0.635 -1.00542,-0.23812 -3.04271,-1.29646 -5.42396,-1.69333 -2.38125,-0.39688 -7.22312,-1.24354 -15.18708,-1.24354 -7.96396,0 -14.605,0.29104 -19.07646,0.89958 -4.47146,0.60854 -15.66333,2.51354 -18.22979,2.93687 -2.566455,0.42334 -11.509365,1.4023 -14.499163,1.5875 -2.98979,0.18521 -11.879788,0.15875 -16.457079,-0.44979 -4.392083,-0.58208 -18.0975,-3.4925 -19.870208,-3.81 -0.07937,-0.0265 -0.15875,-0.10583 -0.15875,-0.18521 z" id="path2" style="stroke:#ffffff;stroke-width:3.96875;stroke-dasharray:none;stroke-opacity:1;paint-order:stroke fill markers" inkscape:label="Stroke"/>
    <path d="m 171.97812,11.100781 c -2.40771,-0.79375 -4.65667,-1.1906197 -6.72042,-1.1906197 -2.06375,0 -3.75708,0.5027097 -5.08,1.5345797 -1.32292,1.03188 -1.95792,2.27542 -1.95792,3.73063 0,2.0902 1.16417,3.73062 3.46605,4.92125 l 7.3025,3.88937 c 4.07458,2.19604 6.11187,5.00063 6.11187,8.466668 0,2.8575 -1.05833,5.13291 -3.14854,6.82625 -2.11667,1.69333 -5.08,2.54 -8.89,2.54 -3.81,0 -7.27604,-0.66146 -10.29229,-1.98438 l 1.29646,-3.4925 c 2.83104,1.19063 5.60916,1.79917 8.36083,1.79917 2.75167,0 4.7625,-0.50271 6.08542,-1.53458 1.32291,-1.03188 1.95791,-2.27542 1.95791,-3.73063 0,-2.090208 -1.16416,-3.730618 -3.46604,-4.921248 l -7.3025,-3.88937 c -4.07458,-2.19605 -6.11187,-5.00063 -6.11187,-8.46667 0,-2.8575 1.05833,-5.13292 3.14854,-6.8262491 2.11666,-1.6933297 4.92125,-2.5399997 8.49312,-2.5399997 2.40771,0 5.13292,0.47625 8.12271,1.4552103 z" id="path6" style="isolation:isolate;stroke:#000000;stroke-width:3.96875;stroke-dasharray:none;stroke-opacity:1" inkscape:label="S2"/>
    <path d="m 129.03624,40.681199 h -5.31813 L 113.0554,12.212031 h -0.26458 l -0.97896,28.469168 h -4.445 l 1.40229,-34.3429168 h 6.6675 l 11.13896,29.7127068 h 0.21167 L 137.92624,6.3382822 h 6.6675 l 1.40229,34.3429168 h -4.97417 L 140.0429,12.212031 h -0.26458 z" id="path5" style="isolation:isolate;stroke:#000000;stroke-width:3.96875;stroke-dasharray:none;stroke-opacity:1" inkscape:label="M"/>
    <path d="M 76.754552,40.681199 V 6.2853622 h 21.007923 l -0.97896,3.7835388 H 81.199552 v 11.35063 h 14.710833 v 3.62479 H 81.199552 v 11.853328 h 17.541883 v 3.78355 z" id="path4" style="isolation:isolate;stroke:#000000;stroke-width:3.96875;stroke-dasharray:none;stroke-opacity:1" inkscape:label="E"/>
    <path d="M 57.863301,37.955989 51.460385,26.869951 57.863301,15.783911 H 71.092468 L 64.477885,4.3274522 H 38.019552 L 31.404968,15.783911 h 13.229167 l 6.402916,11.08604 -6.402916,11.086038 c 0,0 6.191247,11.74746 6.191247,13.28204 l 0.185208,-11.1125 v -0.0794 h -0.07937 c -0.582083,-0.13229 -1.031875,-0.66146 -1.031875,-1.29646 0,-0.3175 0.105833,-0.58208 0.291042,-0.82021 0.238125,-0.3175 0.635,-0.52916 1.058333,-0.52916 0.423333,0 0.820208,0.21166 1.058333,0.52916 0.15875,0.23813 0.291042,0.50271 0.291042,0.82021 0,0.50271 -0.264583,0.89958 -0.661458,1.13771 v 0 c 0,0 -0.02646,0 -0.02646,0.0265 -0.07937,0.0529 -0.15875,0.0794 -0.238125,0.10583 v 0 c -0.02646,0.0265 -0.07937,0.0265 -0.105833,0.0265 h -0.02646 l -0.15875,11.16542 c -0.05292,-1.53459 6.482291,-13.25563 6.482291,-13.25563 z" id="path1" style="stroke:#ffffff;stroke-width:3.96875;stroke-linejoin:round;stroke-dasharray:none;stroke-opacity:1;paint-order:stroke fill markers" inkscape:label="Pen" sodipodi:nodetypes="ccccccccccccccscscssccssscccc"/>
    <path d="m 25.478303,11.100784 c -2.407709,-0.79375 -4.656667,-1.1906247 -6.720417,-1.1906247 -2.06375,0 -3.757083,0.5027087 -5.08,1.5345837 -1.322917,1.031875 -1.957917,2.275416 -1.957917,3.730625 0,2.090208 1.164167,3.730624 3.466042,4.921249 l 7.3025,3.889375 c 4.074583,2.196042 6.111875,5.000625 6.111875,8.466667 0,2.8575 -1.058334,5.13292 -3.148542,6.82625 -2.116666,1.69333 -5.08,2.54 -8.89,2.54 -3.81,0 -7.2760415,-0.66146 -10.2922915,-1.98438 l 1.296458,-3.4925 c 2.8310425,1.19063 5.6091675,1.79917 8.3608335,1.79917 2.751667,0 4.7625,-0.50271 6.085417,-1.53458 1.322917,-1.03188 1.957917,-2.27542 1.957917,-3.73063 0,-2.090205 -1.164167,-3.730622 -3.466042,-4.921247 L 13.175178,24.038909 C 9.1005935,21.842867 7.0633025,19.038284 7.0633025,15.572243 c 0,-2.8575 1.058333,-5.132917 3.1485415,-6.8262491 2.116667,-1.6933337 4.92125,-2.5399997 8.493125,-2.5399997 2.407709,0 5.132917,0.47625 8.122709,1.4552083 z" id="path7" style="isolation:isolate;fill:#000000;fill-opacity:1;stroke:#000000;stroke-width:3.96901;stroke-dasharray:none;stroke-opacity:1" inkscape:label="S1"/>
  </g>
</svg>