<?xml version="1.0" encoding="UTF-8"?>
<svg id="a" data-name="Layer 1" xmlns="http://www.w3.org/2000/svg" viewBox="0 0 652.6 212.94">
  <defs>
    <style>
      .b {
        fill: #fff;
      }

      .c {
        stroke: #121212;
        stroke-width: 8px;
      }

      .c, .d, .e {
        fill: none;
      }

      .e {
        stroke: #fff;
        stroke-width: 18px;
      }
    </style>
  </defs>
  <rect class="d" width="652.6" height="212.94"/>
  <g>
    <path class="d" d="m181.03,185.33v-.07m1.94.07v-.02"/>
    <path class="b" d="m621.44,192.54c-1.44-.53-3.62-1.2-6.65-2.03-15.38-4.26-45.63-9.46-56.33-10.76-1.13-.14-2.43-.31-3.91-.5-11.5-1.48-32.9-4.25-64.27-4.55-1.6,0-3.19-.02-4.76-.02-28.38,0-51.58,2.46-62.73,3.64-1.92.2-3.51.37-4.76.49-2.61.25-11.39,1.56-23.54,3.38-31.54,4.73-84.33,12.65-106.97,13.62-2.92.13-5.97.19-9.05.19-26.87,0-52.88-4.83-62.81-6.91-6.23-1.31-18.31-4.05-25.94-5.79,2.99-7.64,13.62-28.05,23.23-45.24l1.66-2.98-1.7-2.95-22.46-38.89,20.72-35.9h56.93l-5.19-9-25-43.3-1.74-3h-106.92l-1.74,3-25,43.3-5.19,9h56.93l20.72,35.9-22.46,38.9-1.65,2.86,1.54,2.93c9.95,18.95,21.04,41.7,22.52,47.18.67,2.32,5.65,6.39,7.88,6.8,1.72.31,6.75,1.33,13.11,2.63,18.64,3.79,49.82,10.14,62.21,11.79,14.7,1.95,38.25,2.1,45.12,2.1,7.32,0,13.81-.14,17.81-.38,11.41-.69,45.46-4.47,55.16-6,2.79-.44,8.17-1.33,14.98-2.46,16.66-2.77,41.83-6.96,53.88-8.59,15.94-2.15,40.03-3.28,71.6-3.34h.8c27.44,0,44.82,2.82,54.16,4.33l1.76.28c5.59.89,10.63,2.84,14.68,4.41,2.21.85,3.96,1.53,5.45,1.9,3.84.96,20.1,2.22,23.62,2.48.52.07,2.36.29,3.67.29,4.17,0,4.79-3.03,4.87-3.64.47-3.46-2.95-4.7-4.24-5.17Zm-463.73-57.4l24.19-41.9-24.19-41.9h-50l25-43.3h100l25,43.3h-50l-24.19,41.9,24.19,41.89s-19.48,34.87-23.87,46.86c-.15-.02-.31-.03-.47-.03-.12,0-.24,0-.35.02l.57-38.86s.08-.04.13-.04c.16-.01.3-.06.43-.11v-.02c.31-.11.59-.24.87-.4.02-.02.07-.05.07-.05h.02c4.4-2.51,2.54-9.33-2.55-9.36-5.99.15-6.91,8.55-1.12,9.96h.31v.27l-.67,38.99h-.76c-3.89-11.59-22.61-47.22-22.61-47.22Zm463.1,62.21c-1.22,0-3.26-.27-3.26-.27,0,0-19.32-1.45-23.06-2.38s-11.45-4.94-20.47-6.38c-8.94-1.43-26.97-4.66-56.55-4.66h-.81c-30.06.06-55.19,1.09-72.13,3.38s-59.23,9.53-68.94,11.06c-9.71,1.53-43.52,5.28-54.78,5.96-3.8.23-10.16.37-17.57.37-14.54,0-33.15-.55-44.59-2.07-16.63-2.21-68.45-13.18-75.13-14.39-.33-.06-.57-.35-.57-.69v-.92h.02c0-.22.18-.4.4-.4.03,0,.05.01.08.01,3.31.76,22.84,5.24,31.39,7.03,8.45,1.77,35.22,7,63.63,7,3.06,0,6.14-.06,9.22-.19,31.66-1.36,121.7-16.17,130.72-17.02,8.61-.81,34.15-4.11,67.11-4.11,1.56,0,3.13.01,4.72.02,35.23.34,57.96,3.83,67.74,5.02,9.78,1.19,40.34,6.38,55.74,10.64,8.94,2.47,8.79,2.99,7.09,2.99Z"/>
    <path d="m182.97,186.36c0-.25.23-.44.48-.39,3.31.76,22.84,5.24,31.39,7.03,9.36,1.96,41.19,8.17,72.85,6.81s121.7-16.17,130.72-17.02,36.6-4.43,71.83-4.09,57.96,3.83,67.74,5.02,40.34,6.38,55.74,10.64,3.83,2.72,3.83,2.72c0,0-19.32-1.45-23.06-2.38s-11.45-4.94-20.47-6.38-27.3-4.72-57.36-4.66-55.19,1.09-72.13,3.38-59.23,9.53-68.94,11.06-43.52,5.28-54.78,5.96-44.88.6-62.16-1.7c-16.63-2.21-68.45-13.18-75.13-14.39-.33-.06-.57-.35-.57-.69v-.92h.02,0Z"/>
    <path d="m157.71,135.14s23.32,44.4,23.32,50.19l.72-41.96v-.27h-.31c-5.79-1.41-4.87-9.81,1.12-9.96,5.09.03,6.95,6.85,2.55,9.36h-.02s-.05.03-.07.05c-.28.16-.56.29-.87.4v.02c-.13.05-.27.1-.43.11-.05,0-.08.04-.13.04l-.62,42.21c0-5.92,24.74-50.2,24.74-50.2h0l-24.19-41.89,24.19-41.9h50l-25-43.3h-100l-25,43.3h50l24.19,41.9-24.19,41.9h0Z"/>
    <g>
      <g>
        <path d="m283.2,147.44V17.47h79.1l-3.7,14.3h-58.64v42.89h55.33v13.73h-55.33v44.77h66.05v14.29h-82.81Z"/>
        <path d="m470.03,147.44h-20.07l-40.13-107.59h-.97l-3.7,107.59h-16.75l5.26-129.79h25.13l41.89,112.29h.78l41.89-112.29h25.13l5.26,129.79h-18.7l-3.7-107.59h-.97l-40.33,107.59h-.02Z"/>
        <path d="m629.59,33.64c-9.09-3.01-17.53-4.51-25.33-4.51s-14.16,1.95-19.09,5.83c-4.94,3.89-7.4,8.59-7.4,14.11,0,7.9,4.35,14.11,13.05,18.62l27.47,14.67c15.32,8.28,22.99,18.94,22.99,31.98,0,10.79-3.96,19.37-11.88,25.77-7.92,6.4-19.09,9.59-33.51,9.59s-27.34-2.51-38.77-7.52l4.87-13.17c10.65,4.51,21.14,6.77,31.46,6.77s17.96-1.94,22.89-5.83,7.4-8.59,7.4-14.11c0-7.9-4.35-14.11-13.05-18.62l-27.47-14.67c-15.33-8.28-22.99-18.93-22.99-31.98,0-10.78,3.96-19.37,11.88-25.77s18.57-9.59,31.95-9.59c9.09,0,19.29,1.82,30.59,5.45l-5.06,12.98s0,0,0,0Z"/>
        <path d="m87.16,33.64c-9.09-3.01-17.52-4.51-25.32-4.51s-14.16,1.95-19.09,5.83c-4.94,3.89-7.4,8.59-7.4,14.11,0,7.9,4.35,14.11,13.05,18.62l27.47,14.67c15.32,8.28,22.99,18.94,22.99,31.98,0,10.79-3.96,19.37-11.88,25.77-7.92,6.4-19.09,9.59-33.51,9.59s-27.34-2.51-38.77-7.52l4.87-13.17c10.65,4.51,21.14,6.77,31.46,6.77s17.95-1.94,22.89-5.83c4.93-3.89,7.4-8.59,7.4-14.11,0-7.9-4.35-14.11-13.05-18.62l-27.47-14.67c-15.33-8.28-22.99-18.93-22.99-31.98,0-10.78,3.96-19.37,11.88-25.77s18.57-9.59,31.95-9.59c9.09,0,19.29,1.82,30.59,5.45l-5.07,12.98s0,0,0,0Z"/>
      </g>
      <g>
        <path class="e" d="m283.2,147.44V17.47h79.1l-3.7,14.3h-58.64v42.89h55.33v13.73h-55.33v44.77h66.05v14.29h-82.81Z"/>
        <path class="e" d="m470.03,147.44h-20.07l-40.13-107.59h-.97l-3.7,107.59h-16.75l5.26-129.79h25.13l41.89,112.29h.78l41.89-112.29h25.13l5.26,129.79h-18.7l-3.7-107.59h-.97l-40.33,107.59h-.02Z"/>
        <path class="e" d="m629.59,33.64c-9.09-3.01-17.53-4.51-25.33-4.51s-14.16,1.95-19.09,5.83c-4.94,3.89-7.4,8.59-7.4,14.11,0,7.9,4.35,14.11,13.05,18.62l27.47,14.67c15.32,8.28,22.99,18.94,22.99,31.98,0,10.79-3.96,19.37-11.88,25.77-7.92,6.4-19.09,9.59-33.51,9.59s-27.34-2.51-38.77-7.52l4.87-13.17c10.65,4.51,21.14,6.77,31.46,6.77s17.96-1.94,22.89-5.83,7.4-8.59,7.4-14.11c0-7.9-4.35-14.11-13.05-18.62l-27.47-14.67c-15.33-8.28-22.99-18.93-22.99-31.98,0-10.78,3.96-19.37,11.88-25.77s18.57-9.59,31.95-9.59c9.09,0,19.29,1.82,30.59,5.45l-5.06,12.98s0,0,0,0Z"/>
        <path class="e" d="m87.16,33.64c-9.09-3.01-17.52-4.51-25.32-4.51s-14.16,1.95-19.09,5.83c-4.94,3.89-7.4,8.59-7.4,14.11,0,7.9,4.35,14.11,13.05,18.62l27.47,14.67c15.32,8.28,22.99,18.94,22.99,31.98,0,10.79-3.96,19.37-11.88,25.77-7.92,6.4-19.09,9.59-33.51,9.59s-27.34-2.51-38.77-7.52l4.87-13.17c10.65,4.51,21.14,6.77,31.46,6.77s17.95-1.94,22.89-5.83c4.93-3.89,7.4-8.59,7.4-14.11,0-7.9-4.35-14.11-13.05-18.62l-27.47-14.67c-15.33-8.28-22.99-18.93-22.99-31.98,0-10.78,3.96-19.37,11.88-25.77s18.57-9.59,31.95-9.59c9.09,0,19.29,1.82,30.59,5.45l-5.07,12.98s0,0,0,0Z"/>
      </g>
      <g>
        <path d="m283.2,147.44V17.47h79.1l-3.7,14.3h-58.64v42.89h55.33v13.73h-55.33v44.77h66.05v14.29h-82.81Z"/>
        <path d="m470.03,147.44h-20.07l-40.13-107.59h-.97l-3.7,107.59h-16.75l5.26-129.79h25.13l41.89,112.29h.78l41.89-112.29h25.13l5.26,129.79h-18.7l-3.7-107.59h-.97l-40.33,107.59h-.02Z"/>
        <path d="m629.59,33.64c-9.09-3.01-17.53-4.51-25.33-4.51s-14.16,1.95-19.09,5.83c-4.94,3.89-7.4,8.59-7.4,14.11,0,7.9,4.35,14.11,13.05,18.62l27.47,14.67c15.32,8.28,22.99,18.94,22.99,31.98,0,10.79-3.96,19.37-11.88,25.77-7.92,6.4-19.09,9.59-33.51,9.59s-27.34-2.51-38.77-7.52l4.87-13.17c10.65,4.51,21.14,6.77,31.46,6.77s17.96-1.94,22.89-5.83,7.4-8.59,7.4-14.11c0-7.9-4.35-14.11-13.05-18.62l-27.47-14.67c-15.33-8.28-22.99-18.93-22.99-31.98,0-10.78,3.96-19.37,11.88-25.77s18.57-9.59,31.95-9.59c9.09,0,19.29,1.82,30.59,5.45l-5.06,12.98s0,0,0,0Z"/>
        <path d="m87.16,33.64c-9.09-3.01-17.52-4.51-25.32-4.51s-14.16,1.95-19.09,5.83c-4.94,3.89-7.4,8.59-7.4,14.11,0,7.9,4.35,14.11,13.05,18.62l27.47,14.67c15.32,8.28,22.99,18.94,22.99,31.98,0,10.79-3.96,19.37-11.88,25.77-7.92,6.4-19.09,9.59-33.51,9.59s-27.34-2.51-38.77-7.52l4.87-13.17c10.65,4.51,21.14,6.77,31.46,6.77s17.95-1.94,22.89-5.83c4.93-3.89,7.4-8.59,7.4-14.11,0-7.9-4.35-14.11-13.05-18.62l-27.47-14.67c-15.33-8.28-22.99-18.93-22.99-31.98,0-10.78,3.96-19.37,11.88-25.77s18.57-9.59,31.95-9.59c9.09,0,19.29,1.82,30.59,5.45l-5.07,12.98s0,0,0,0Z"/>
      </g>
      <g>
        <path class="c" d="m283.2,147.44V17.47h79.1l-3.7,14.3h-58.64v42.89h55.33v13.73h-55.33v44.77h66.05v14.29h-82.81Z"/>
        <path class="c" d="m470.03,147.44h-20.07l-40.13-107.59h-.97l-3.7,107.59h-16.75l5.26-129.79h25.13l41.89,112.29h.78l41.89-112.29h25.13l5.26,129.79h-18.7l-3.7-107.59h-.97l-40.33,107.59h-.02Z"/>
        <path class="c" d="m629.59,33.64c-9.09-3.01-17.53-4.51-25.33-4.51s-14.16,1.95-19.09,5.83c-4.94,3.89-7.4,8.59-7.4,14.11,0,7.9,4.35,14.11,13.05,18.62l27.47,14.67c15.32,8.28,22.99,18.94,22.99,31.98,0,10.79-3.96,19.37-11.88,25.77-7.92,6.4-19.09,9.59-33.51,9.59s-27.34-2.51-38.77-7.52l4.87-13.17c10.65,4.51,21.14,6.77,31.46,6.77s17.96-1.94,22.89-5.83,7.4-8.59,7.4-14.11c0-7.9-4.35-14.11-13.05-18.62l-27.47-14.67c-15.33-8.28-22.99-18.93-22.99-31.98,0-10.78,3.96-19.37,11.88-25.77s18.57-9.59,31.95-9.59c9.09,0,19.29,1.82,30.59,5.45l-5.06,12.98s0,0,0,0Z"/>
        <path class="c" d="m87.16,33.64c-9.09-3.01-17.52-4.51-25.32-4.51s-14.16,1.95-19.09,5.83c-4.94,3.89-7.4,8.59-7.4,14.11,0,7.9,4.35,14.11,13.05,18.62l27.47,14.67c15.32,8.28,22.99,18.94,22.99,31.98,0,10.79-3.96,19.37-11.88,25.77-7.92,6.4-19.09,9.59-33.51,9.59s-27.34-2.51-38.77-7.52l4.87-13.17c10.65,4.51,21.14,6.77,31.46,6.77s17.95-1.94,22.89-5.83c4.93-3.89,7.4-8.59,7.4-14.11,0-7.9-4.35-14.11-13.05-18.62l-27.47-14.67c-15.33-8.28-22.99-18.93-22.99-31.98,0-10.78,3.96-19.37,11.88-25.77s18.57-9.59,31.95-9.59c9.09,0,19.29,1.82,30.59,5.45l-5.07,12.98s0,0,0,0Z"/>
      </g>
    </g>
  </g>
</svg>