<?xml version="1.0" encoding="UTF-8"?>
<svg id="a" data-name="Layer 1" xmlns="http://www.w3.org/2000/svg" viewBox="0 0 626.58 196.39">
  <path d="m201.14,127.1l-24.19-41.9,24.19-41.9h50L226.14,0h-100l-25,43.3h50l24.19,41.9-24.19,41.9.7,1.21c-.15-.05-.23-.09-.23-.09,0,0,22.85,43.28,22.85,49.07l.72-41.96v-.27h-.31c-2.25-.51-3.93-2.51-3.93-4.91,0-1.16.4-2.21,1.06-3.06.92-1.2,2.36-1.99,3.99-1.99s3.06.79,3.99,1.99c.65.85,1.06,1.9,1.06,3.06,0,1.85-1.01,3.44-2.5,4.31h-.02s-.05.03-.07.05c-.28.16-.56.29-.87.4v.02c-.13.05-.27.1-.43.11-.05,0-.08.04-.13.04l-.62,42.21c0-5.92,24.74-50.2,24.74-50.2h0Z"/>
  <path d="m176.4,178.32c0-.25.23-.44.48-.39,3.31.76,22.84,5.24,31.39,7.03,9.36,1.96,41.19,8.17,72.85,6.81s121.7-16.17,130.72-17.02,36.6-4.43,71.83-4.09,57.96,3.83,67.74,5.02,40.34,6.38,55.74,10.64,3.83,2.72,3.83,2.72c0,0-19.32-1.45-23.06-2.38s-11.45-4.94-20.47-6.38-27.3-4.72-57.36-4.66-55.19,1.09-72.13,3.38-59.23,9.53-68.94,11.06-43.52,5.28-54.78,5.96-44.88.6-62.16-1.7c-16.63-2.21-68.45-13.18-75.13-14.39-.33-.06-.57-.35-.57-.69v-.92h.02Z"/>
  <g>
    <path d="m268.5,139.4V9.43h79.1l-3.7,14.3h-58.64v42.89h55.33v13.73h-55.33v44.77h66.05v14.29h-82.81Z"/>
    <path d="m455.33,139.4h-20.07l-40.13-107.59h-.97l-3.7,107.59h-16.75l5.26-129.79h25.13l41.89,112.29h.78l41.89-112.29h25.13l5.26,129.79h-18.7l-3.7-107.59h-.97l-40.33,107.59h-.02Z"/>
    <path d="m614.89,25.6c-9.09-3.01-17.53-4.51-25.33-4.51s-14.16,1.95-19.09,5.83c-4.94,3.89-7.4,8.59-7.4,14.11,0,7.9,4.35,14.11,13.05,18.62l27.47,14.67c15.32,8.28,22.99,18.94,22.99,31.98,0,10.79-3.96,19.37-11.88,25.77-7.92,6.4-19.09,9.59-33.51,9.59s-27.34-2.51-38.77-7.52l4.87-13.17c10.65,4.51,21.14,6.77,31.46,6.77s17.96-1.94,22.89-5.83,7.4-8.59,7.4-14.11c0-7.9-4.35-14.11-13.05-18.62l-27.47-14.67c-15.33-8.28-22.99-18.93-22.99-31.98,0-10.78,3.96-19.37,11.88-25.77s18.57-9.59,31.95-9.59c9.09,0,19.29,1.82,30.59,5.45l-5.07,12.98h.01Z"/>
  </g>
  <path d="m72.47,25.6c-9.09-3.01-17.53-4.51-25.33-4.51s-14.16,1.95-19.09,5.83c-4.94,3.89-7.4,8.59-7.4,14.11,0,7.9,4.35,14.11,13.05,18.62l27.47,14.67c15.32,8.28,22.99,18.94,22.99,31.98,0,10.79-3.96,19.37-11.88,25.77-7.92,6.4-19.09,9.59-33.51,9.59s-27.34-2.51-38.77-7.52l4.87-13.17c10.65,4.51,21.14,6.77,31.46,6.77s17.95-1.94,22.89-5.83c4.93-3.89,7.4-8.59,7.4-14.11,0-7.9-4.35-14.11-13.05-18.62l-27.47-14.67C10.77,66.23,3.11,55.58,3.11,42.53c0-10.78,3.96-19.37,11.88-25.77s18.57-9.59,31.95-9.59c9.09,0,19.29,1.82,30.59,5.45l-5.07,12.98h.01Z"/>
</svg>