<?xml version="1.0" encoding="UTF-8"?>
<svg id="a" data-name="Layer 1" xmlns="http://www.w3.org/2000/svg" viewBox="0 0 485.31 75.49">
  <g>
    <polygon points="10.41 0 5.2 9.01 0 0 10.41 0"/>
    <polygon points="23.2 0 18 9.01 12.79 0 23.2 0"/>
    <polygon points="36 0 30.79 9.01 25.58 0 36 0"/>
    <polygon points="48.79 0 43.58 9.01 38.38 0 48.79 0"/>
    <polygon points="61.58 0 56.38 9.01 51.17 0 61.58 0"/>
    <polygon points="74.38 0 69.17 9.01 63.96 0 74.38 0"/>
    <polygon points="87.17 0 81.96 9.01 76.76 0 87.17 0"/>
    <polygon points="16.8 9.7 6.4 9.7 11.59 .69 16.8 9.7"/>
    <polygon points="29.6 9.7 19.19 9.7 24.39 .69 29.6 9.7"/>
    <polygon points="42.39 9.7 31.99 9.7 37.18 .69 42.39 9.7"/>
    <polygon points="55.18 9.7 44.78 9.7 49.97 .69 55.18 9.7"/>
    <polygon points="67.98 9.7 57.57 9.7 62.77 .69 67.98 9.7"/>
    <polygon points="80.77 9.7 70.37 9.7 75.56 .69 80.77 9.7"/>
    <polygon points="16.8 11.08 11.59 20.09 6.4 11.08 16.8 11.08"/>
    <polygon points="29.6 11.08 24.39 20.09 19.19 11.08 29.6 11.08"/>
    <polygon points="67.98 11.08 62.77 20.09 57.57 11.08 67.98 11.08"/>
    <polygon points="80.77 11.08 75.56 20.09 70.37 11.08 80.77 11.08"/>
    <polygon points="23.2 20.78 12.79 20.78 18 11.76 23.2 20.78"/>
    <polygon points="74.38 20.78 63.96 20.78 69.17 11.76 74.38 20.78"/>
    <polygon points="23.2 22.16 18 31.17 12.79 22.16 23.2 22.16"/>
    <polygon points="36 22.16 30.79 31.17 25.58 22.16 36 22.16"/>
    <polygon points="61.58 22.16 56.38 31.17 51.17 22.16 61.58 22.16"/>
    <polygon points="74.38 22.16 69.17 31.17 63.96 22.16 74.38 22.16"/>
    <polygon points="29.6 31.86 19.19 31.86 24.39 22.85 29.6 31.86"/>
    <polygon points="42.39 31.86 31.99 31.86 37.18 22.85 42.39 31.86"/>
    <polygon points="55.18 31.86 44.78 31.86 49.97 22.85 55.18 31.86"/>
    <polygon points="67.98 31.86 57.57 31.86 62.77 22.85 67.98 31.86"/>
    <polygon points="29.6 33.24 24.39 42.25 19.19 33.24 29.6 33.24"/>
    <polygon points="42.39 33.24 37.18 42.25 31.99 33.24 42.39 33.24"/>
    <polygon points="55.18 33.24 49.97 42.25 44.78 33.24 55.18 33.24"/>
    <polygon points="67.98 33.24 62.77 42.25 57.57 33.24 67.98 33.24"/>
    <polygon points="36 42.94 25.58 42.94 30.79 33.92 36 42.94"/>
    <polygon points="61.58 42.94 51.17 42.94 56.38 33.92 61.58 42.94"/>
    <polygon points="36 44.31 30.79 53.33 25.58 44.31 36 44.31"/>
    <polygon points="61.58 44.31 56.38 53.33 51.17 44.31 61.58 44.31"/>
    <polygon points="42.39 54.02 31.99 54.02 37.18 45 42.39 54.02"/>
    <polygon points="55.18 54.02 44.78 54.02 49.97 45 55.18 54.02"/>
    <polygon points="42.39 55.4 37.18 64.41 31.99 55.4 42.39 55.4"/>
    <polygon points="55.18 55.4 49.97 64.41 44.78 55.4 55.18 55.4"/>
    <polygon points="48.79 65.1 38.38 65.1 43.58 56.08 48.79 65.1"/>
    <polygon points="48.79 66.47 43.58 75.49 38.38 66.47 48.79 66.47"/>
  </g>
  <g>
    <polygon points="136.1 10.96 136.1 16.94 123.55 16.94 123.55 67.58 117.18 67.58 117.18 16.94 104.61 16.94 104.61 10.96 136.1 10.96"/>
    <polygon points="147.36 16.94 147.36 36.23 165.27 36.23 165.27 42.22 147.36 42.22 147.36 61.59 172.48 61.59 172.48 67.58 140.99 67.58 140.99 10.96 172.48 10.96 172.48 16.94 147.36 16.94"/>
    <path d="m216.06,51.96c0,4.13-1.52,7.74-4.52,10.75-3.01,3.01-6.78,4.65-11.2,4.87h-22.98v-5.99h22.03c2.86,0,5.23-.91,7.28-2.81,2.04-1.88,3.02-4.12,3.02-6.83s-.98-4.95-3.02-6.83-4.42-2.81-7.28-2.81h-7.61v-.22c-3.87-.45-7.18-2.05-9.89-4.77-3-3-4.53-6.62-4.53-10.74s1.53-7.74,4.53-10.75c3.01-3.01,6.77-4.65,11.2-4.87h15.76s0,5.97,0,5.97h-14.82c-2.85,0-5.22.92-7.26,2.82-2.04,1.88-3.04,4.12-3.04,6.83s.99,4.96,3.04,6.88c2.04,1.92,4.42,2.86,7.26,2.86h6.31c4.42.22,8.19,1.86,11.2,4.87,3,3.01,4.52,6.64,4.52,10.75Z"/>
    <path d="m259.65,51.96c0,4.12-1.53,7.74-4.53,10.75-3.01,3.01-6.78,4.65-11.2,4.87h-22.97v-5.99h22.02c2.86,0,5.23-.91,7.28-2.81,2.04-1.88,3.04-4.12,3.04-6.83s-.99-4.95-3.04-6.83c-2.04-1.88-4.42-2.81-7.28-2.81h-7.6v-.22c-3.87-.45-7.2-2.05-9.9-4.77-3-3-4.52-6.62-4.52-10.74s1.52-7.74,4.52-10.75c3.01-3.01,6.78-4.65,11.2-4.87h15.77s0,5.97,0,5.97h-14.82c-2.86,0-5.23.92-7.28,2.82-2.04,1.88-3.02,4.12-3.02,6.83s.99,4.96,3.02,6.88c2.04,1.92,4.43,2.86,7.28,2.86h6.3c4.42.22,8.19,1.86,11.2,4.87,3,3.01,4.53,6.64,4.53,10.75Z"/>
    <polygon points="270.89 16.94 270.89 36.23 288.81 36.23 288.81 42.22 270.89 42.22 270.89 61.59 296.02 61.59 296.02 67.58 264.53 67.58 264.53 10.96 296.02 10.96 296.02 16.94 270.89 16.94"/>
    <polygon points="332.4 61.59 332.4 67.58 300.91 67.58 300.91 10.85 307.27 10.85 307.27 61.59 332.4 61.59"/>
    <polygon points="368.87 61.59 368.87 67.58 337.38 67.58 337.38 10.85 343.75 10.85 343.75 61.59 368.87 61.59"/>
    <polygon points="413.07 67.58 406.46 67.58 393.17 27.89 379.98 67.58 373.38 67.58 393.16 7.91 413.07 67.58"/>
    <polygon points="448.94 10.96 448.94 16.94 436.37 16.94 436.37 67.58 430.01 67.58 430.01 16.94 417.45 16.94 417.45 10.96 448.94 10.96"/>
    <polygon points="460.18 16.94 460.18 36.23 478.1 36.23 478.1 42.22 460.18 42.22 460.18 61.59 485.31 61.59 485.31 67.58 453.82 67.58 453.82 10.96 485.31 10.96 485.31 16.94 460.18 16.94"/>
  </g>
</svg>