<?xml version="1.0" encoding="UTF-8"?>
<svg id="logo-svg-white" xmlns="http://www.w3.org/2000/svg" viewBox="0 0 698.01 399.48">
  <defs>
    <style>
      .cls-1 {
        fill: #fff;
      }
    </style>
  </defs>
  <path class="cls-1" d="m242,219.11l-24.19-41.9,24.19-41.9h50l-25-43.3h-100l-25,43.3h50l24.19,41.9-24.19,41.9.7,1.21c-.15-.05-.23-.09-.23-.09,0,0,22.85,43.28,22.85,49.07l.72-41.96v-.27h-.31c-2.25-.51-3.93-2.51-3.93-4.91,0-1.16.4-2.21,1.06-3.06.92-1.2,2.36-1.99,3.99-1.99s3.06.79,3.99,1.99c.65.85,1.06,1.9,1.06,3.06,0,1.85-1.01,3.44-2.5,4.31,0,0-.01,0-.02,0-.02.02-.05.03-.07.05-.28.16-.56.29-.87.4,0,0,0,.01,0,.02-.13.05-.27.1-.43.11-.05.01-.08.04-.13.04l-.62,42.21c0-5.92,24.74-50.2,24.74-50.2h0s0,0,0,0Z"/>
  <path class="cls-1" d="m217.26,270.33c0-.25.23-.44.48-.39,3.31.76,22.84,5.24,31.39,7.03,9.36,1.96,41.19,8.17,72.85,6.81s121.7-16.17,130.72-17.02,36.6-4.43,71.83-4.09,57.96,3.83,67.74,5.02,40.34,6.38,55.74,10.64,3.83,2.72,3.83,2.72c0,0-19.32-1.45-23.06-2.38s-11.45-4.94-20.47-6.38-27.3-4.72-57.36-4.66-55.19,1.09-72.13,3.38-59.23,9.53-68.94,11.06-43.52,5.28-54.78,5.96-44.88.6-62.16-1.7c-16.63-2.21-68.45-13.18-75.13-14.39-.33-.06-.57-.35-.57-.69v-.92Z"/>
  <g>
    <path class="cls-1" d="m309.36,231.41V101.44h79.1l-3.7,14.3h-58.64v42.89h55.33v13.73h-55.33v44.77h66.05v14.29h-82.8Z"/>
    <path class="cls-1" d="m496.19,231.41h-20.07l-40.13-107.59h-.97l-3.7,107.59h-16.75l5.26-129.79h25.13l41.89,112.29h.78l41.89-112.29h25.13l5.26,129.79h-18.7l-3.7-107.59h-.97l-40.33,107.59Z"/>
    <path class="cls-1" d="m655.75,117.61c-9.09-3.01-17.53-4.51-25.33-4.51s-14.16,1.95-19.09,5.83c-4.94,3.89-7.4,8.59-7.4,14.11,0,7.9,4.35,14.11,13.05,18.62l27.47,14.67c15.32,8.28,22.99,18.94,22.99,31.98,0,10.79-3.96,19.37-11.88,25.77-7.92,6.4-19.09,9.59-33.51,9.59s-27.34-2.51-38.77-7.52l4.87-13.17c10.65,4.51,21.14,6.77,31.46,6.77s17.96-1.94,22.89-5.83c4.93-3.89,7.4-8.59,7.4-14.11,0-7.9-4.35-14.11-13.05-18.62l-27.47-14.67c-15.33-8.28-22.99-18.93-22.99-31.98,0-10.78,3.96-19.37,11.88-25.77,7.92-6.4,18.57-9.59,31.95-9.59,9.09,0,19.29,1.82,30.59,5.45l-5.07,12.98Z"/>
  </g>
  <path class="cls-1" d="m113.33,117.61c-9.09-3.01-17.53-4.51-25.33-4.51s-14.16,1.95-19.09,5.83c-4.94,3.89-7.4,8.59-7.4,14.11,0,7.9,4.35,14.11,13.05,18.62l27.47,14.67c15.32,8.28,22.99,18.94,22.99,31.98,0,10.79-3.96,19.37-11.88,25.77-7.92,6.4-19.09,9.59-33.51,9.59s-27.34-2.51-38.77-7.52l4.87-13.17c10.65,4.51,21.14,6.77,31.46,6.77s17.95-1.94,22.89-5.83c4.93-3.89,7.4-8.59,7.4-14.11,0-7.9-4.35-14.11-13.05-18.62l-27.47-14.67c-15.33-8.28-22.99-18.93-22.99-31.98,0-10.78,3.96-19.37,11.88-25.77,7.92-6.4,18.57-9.59,31.95-9.59,9.09,0,19.29,1.82,30.59,5.45l-5.07,12.98Z"/>
  <g>
    <path class="cls-1" d="m51.46,300.62c-1.31-.62-2.52-.94-3.64-.94s-2.03.4-2.74,1.21c-.71.81-1.06,1.78-1.06,2.92,0,1.64.62,2.93,1.87,3.86l3.94,3.04c2.2,1.72,3.3,3.93,3.3,6.63,0,2.24-.57,4.02-1.71,5.34-1.14,1.33-2.74,1.99-4.81,1.99s-3.92-.52-5.56-1.56l.7-2.73c1.53.94,3.03,1.4,4.52,1.4s2.58-.4,3.29-1.21c.71-.81,1.06-1.78,1.06-2.92,0-1.64-.62-2.92-1.87-3.86l-3.94-3.04c-2.2-1.72-3.3-3.93-3.3-6.63,0-2.24.57-4.02,1.71-5.34s2.67-1.99,4.59-1.99c1.3,0,2.77.38,4.39,1.13l-.73,2.69Z"/>
    <path class="cls-1" d="m61.27,305.96c1.25,0,2.52.39,3.8,1.17l-.7,2.42c-.95-.57-1.96-.86-3.03-.86s-1.92.56-2.54,1.68c-.62,1.12-.94,2.76-.94,4.91s.33,3.81.98,4.95c.65,1.14,1.51,1.72,2.57,1.72s2.16-.36,3.3-1.09l.53,2.57c-1.3.83-2.63,1.25-3.97,1.25-1.73,0-3.15-.88-4.24-2.63-1.09-1.76-1.64-4.02-1.64-6.79s.55-5.01,1.64-6.73c1.09-1.72,2.5-2.57,4.24-2.57Z"/>
    <path class="cls-1" d="m70.05,296.21v12.05c1.4-1.53,2.9-2.3,4.5-2.3,1.25,0,2.24.44,2.98,1.31s1.1,2.01,1.1,3.41v13.53h-2.38v-13.3c0-.68-.19-1.2-.57-1.56-.38-.36-.89-.55-1.52-.55-1.32,0-2.69.66-4.11,1.99v13.42h-2.38v-28h2.38Z"/>
    <path class="cls-1" d="m87.78,305.96c2.07,0,3.58.9,4.53,2.69.95,1.79,1.43,4.13,1.43,7.02,0,2.08-.39,4-1.17,5.77-.43.96-1.07,1.74-1.93,2.34-.86.6-1.88.9-3.08.9-2.05,0-3.54-.86-4.47-2.57-.93-1.72-1.4-4.02-1.4-6.9,0-1.69.19-3.12.57-4.29.38-1.17.79-2.07,1.22-2.71.43-.64,1.02-1.17,1.76-1.6s1.59-.64,2.54-.64Zm0,2.54c-.71,0-1.32.22-1.83.66s-.89,1.01-1.13,1.72c-.45,1.33-.67,2.74-.67,4.25,0,4.68,1.16,7.02,3.5,7.02.71,0,1.31-.22,1.82-.66.5-.44.88-1.01,1.15-1.72.45-1.3.67-2.72.67-4.25,0-4.68-1.17-7.02-3.5-7.02Z"/>
    <path class="cls-1" d="m96.78,296.21h2.29v28h-2.29v-28Z"/>
    <path class="cls-1" d="m109.98,313.57v-1.72c0-2.11-.78-3.16-2.35-3.16-1.23,0-2.52.56-3.86,1.68l-.81-2.34c1.57-1.38,3.25-2.07,5.06-2.07,1.27,0,2.31.45,3.12,1.35.81.9,1.22,2.28,1.22,4.15v12.75h-1.51l-.7-2.34c-.6.86-1.31,1.54-2.12,2.05-.82.51-1.57.76-2.24.76-1.16,0-2.08-.44-2.77-1.33-.69-.88-1.03-2.04-1.03-3.47,0-4.21,2.67-6.32,8-6.32Zm-5.35,4.97c-.12.35-.18.81-.18,1.37s.17,1.04.52,1.44c.34.4.8.6,1.36.6,1.17,0,2.4-.73,3.66-2.18v-3.9c-2.35.05-3.9.55-4.64,1.48-.35.44-.59.84-.71,1.19Z"/>
    <path class="cls-1" d="m122.82,309.55c-.95-.57-1.85-.86-2.68-.86-1.62,0-2.43.69-2.43,2.07,0,1.2,1.08,2.35,3.24,3.47.8.42,1.54,1.07,2.22,1.95.68.88,1.02,1.95,1.02,3.2,0,1.79-.42,3.13-1.26,4-.84.87-2,1.31-3.5,1.31s-2.95-.57-4.36-1.72l.7-2.42c1.17.94,2.51,1.4,4,1.4.63,0,1.15-.19,1.54-.57.39-.38.59-.89.59-1.54s-.22-1.21-.67-1.68c-.45-.47-.99-.88-1.62-1.25s-1.27-.76-1.9-1.19c-.63-.43-1.17-1.03-1.62-1.81-.45-.78-.67-1.7-.67-2.77,0-1.66.41-2.94,1.22-3.84.81-.9,1.84-1.35,3.09-1.35s2.52.39,3.8,1.17l-.7,2.42Z"/>
    <path class="cls-1" d="m129.86,308.89v10.69c0,1.56.53,2.34,1.59,2.34.62,0,1.35-.25,2.21-.74l.31,2.61c-.91.6-1.87.9-2.88.9s-1.85-.42-2.52-1.27c-.67-.84-1.01-2.14-1.01-3.88v-10.65h-1.76v-2.46h1.76v-3.51l1.73-2.22h.56v5.73h3.61v2.46h-3.61Z"/>
    <path class="cls-1" d="m138.98,302.24c-.3.43-.66.64-1.09.64s-.79-.21-1.09-.64-.45-.94-.45-1.54.15-1.11.46-1.54.67-.64,1.08-.64.77.21,1.08.64.46.94.46,1.54-.15,1.11-.45,1.54Zm-2.27,4.19h2.38v17.78h-2.38v-17.78Z"/>
    <path class="cls-1" d="m148.35,305.96c1.25,0,2.52.39,3.8,1.17l-.7,2.42c-.95-.57-1.96-.86-3.03-.86s-1.92.56-2.54,1.68c-.62,1.12-.94,2.76-.94,4.91s.33,3.81.98,4.95c.65,1.14,1.51,1.72,2.57,1.72s2.16-.36,3.3-1.09l.53,2.57c-1.3.83-2.63,1.25-3.97,1.25-1.73,0-3.15-.88-4.24-2.63-1.09-1.76-1.64-4.02-1.64-6.79s.55-5.01,1.64-6.73c1.09-1.72,2.5-2.57,4.24-2.57Z"/>
    <path class="cls-1" d="m160.54,300.23v-2.96h13.48v2.96h-5.54v23.99h-2.41v-23.99h-5.54Z"/>
    <path class="cls-1" d="m178.91,321.95c1.34,0,2.68-.56,4.03-1.68l.81,2.34c-1.57,1.38-3.24,2.07-5.02,2.07s-3.19-.79-4.24-2.36c-1.04-1.57-1.57-3.84-1.57-6.81s.54-5.3,1.62-7c1.08-1.7,2.52-2.55,4.31-2.55,1.62,0,2.9.7,3.83,2.11.39.57.72,1.4.99,2.5.27,1.09.41,2.38.41,3.86l-.87,1.37h-7.91c.06,4.11,1.26,6.16,3.61,6.16Zm2.01-12.13c-.54-.88-1.25-1.33-2.14-1.33s-1.64.44-2.25,1.31-.99,2.05-1.12,3.53h6.32c0-1.46-.27-2.63-.81-3.51Z"/>
    <path class="cls-1" d="m193.56,309.55c-.95-.57-1.85-.86-2.68-.86-1.62,0-2.43.69-2.43,2.07,0,1.2,1.08,2.35,3.24,3.47.8.42,1.54,1.07,2.22,1.95.68.88,1.02,1.95,1.02,3.2,0,1.79-.42,3.13-1.26,4-.84.87-2,1.31-3.5,1.31s-2.95-.57-4.36-1.72l.7-2.42c1.17.94,2.51,1.4,4,1.4.63,0,1.15-.19,1.54-.57.39-.38.59-.89.59-1.54s-.22-1.21-.67-1.68c-.45-.47-.99-.88-1.62-1.25s-1.27-.76-1.9-1.19c-.63-.43-1.17-1.03-1.62-1.81-.45-.78-.67-1.7-.67-2.77,0-1.66.41-2.94,1.22-3.84.81-.9,1.84-1.35,3.09-1.35s2.52.39,3.8,1.17l-.7,2.42Z"/>
    <path class="cls-1" d="m200.61,308.89v10.69c0,1.56.53,2.34,1.59,2.34.62,0,1.35-.25,2.21-.74l.31,2.61c-.91.6-1.87.9-2.88.9s-1.85-.42-2.52-1.27c-.67-.84-1.01-2.14-1.01-3.88v-10.65h-1.76v-2.46h1.76v-3.51l1.73-2.22h.56v5.73h3.61v2.46h-3.61Z"/>
    <path class="cls-1" d="m224.99,305.96c2.07,0,3.58.9,4.53,2.69.95,1.79,1.43,4.13,1.43,7.02,0,2.08-.39,4-1.17,5.77-.43.96-1.07,1.74-1.93,2.34-.86.6-1.88.9-3.08.9-2.05,0-3.54-.86-4.47-2.57-.93-1.72-1.4-4.02-1.4-6.9,0-1.69.19-3.12.57-4.29.38-1.17.79-2.07,1.22-2.71.43-.64,1.02-1.17,1.76-1.6s1.59-.64,2.54-.64Zm0,2.54c-.71,0-1.32.22-1.83.66s-.89,1.01-1.13,1.72c-.45,1.33-.67,2.74-.67,4.25,0,4.68,1.16,7.02,3.5,7.02.71,0,1.31-.22,1.82-.66.5-.44.88-1.01,1.15-1.72.45-1.3.67-2.72.67-4.25,0-4.68-1.17-7.02-3.5-7.02Z"/>
    <path class="cls-1" d="m234.75,306.43v-4.72c0-1.92.33-3.4.98-4.43.65-1.03,1.51-1.54,2.56-1.54s2.18.39,3.37,1.17l-.81,2.34c-.82-.47-1.53-.7-2.12-.7-1.12,0-1.68,1.04-1.68,3.12v4.76h3.47v2.46h-3.47v15.33h-2.29v-15.33h-1.9v-2.46h1.9Z"/>
    <path class="cls-1" d="m254.55,324.21v-26.95h11.35l-.53,2.96h-8.42v8.89h7.94v2.85h-7.94v9.28h9.48v2.96h-11.88Z"/>
    <path class="cls-1" d="m267.8,306.43h2.74l3.22,6.16,3.1-6.16h2.68l-4.5,8.66,4.81,9.13h-2.74l-3.58-6.83-3.44,6.83h-2.68l4.84-9.28-4.45-8.5Z"/>
    <path class="cls-1" d="m286.87,305.96c1.25,0,2.52.39,3.8,1.17l-.7,2.42c-.95-.57-1.96-.86-3.03-.86s-1.92.56-2.54,1.68c-.62,1.12-.94,2.76-.94,4.91s.33,3.81.98,4.95c.65,1.14,1.51,1.72,2.57,1.72s2.16-.36,3.3-1.09l.53,2.57c-1.3.83-2.63,1.25-3.97,1.25-1.73,0-3.15-.88-4.24-2.63-1.09-1.76-1.64-4.02-1.64-6.79s.55-5.01,1.64-6.73c1.09-1.72,2.5-2.57,4.24-2.57Z"/>
    <path class="cls-1" d="m298.51,321.95c1.34,0,2.68-.56,4.03-1.68l.81,2.34c-1.57,1.38-3.24,2.07-5.02,2.07s-3.19-.79-4.24-2.36c-1.04-1.57-1.57-3.84-1.57-6.81s.54-5.3,1.62-7c1.08-1.7,2.52-2.55,4.31-2.55,1.62,0,2.9.7,3.83,2.11.39.57.72,1.4.99,2.5.27,1.09.41,2.38.41,3.86l-.87,1.37h-7.91c.06,4.11,1.26,6.16,3.61,6.16Zm2.01-12.13c-.54-.88-1.25-1.33-2.14-1.33s-1.64.44-2.25,1.31-.99,2.05-1.12,3.53h6.32c0-1.46-.27-2.63-.81-3.51Z"/>
    <path class="cls-1" d="m306.5,296.21h2.29v28h-2.29v-28Z"/>
    <path class="cls-1" d="m312.6,296.21h2.29v28h-2.29v-28Z"/>
    <path class="cls-1" d="m323.92,321.95c1.34,0,2.68-.56,4.03-1.68l.81,2.34c-1.57,1.38-3.24,2.07-5.02,2.07s-3.19-.79-4.24-2.36c-1.04-1.57-1.57-3.84-1.57-6.81s.54-5.3,1.62-7c1.08-1.7,2.52-2.55,4.31-2.55,1.62,0,2.9.7,3.83,2.11.39.57.72,1.4.99,2.5.27,1.09.41,2.38.41,3.86l-.87,1.37h-7.91c.06,4.11,1.26,6.16,3.61,6.16Zm2.01-12.13c-.54-.88-1.25-1.33-2.14-1.33s-1.64.44-2.25,1.31-.99,2.05-1.12,3.53h6.32c0-1.46-.27-2.63-.81-3.51Z"/>
    <path class="cls-1" d="m342.99,310.76v13.46h-2.38v-13.3c0-.68-.19-1.2-.57-1.56-.38-.36-.89-.55-1.52-.55-1.32,0-2.69.66-4.11,1.99v13.42h-2.38v-17.78h1.51l.7,2.03c1.44-1.66,2.99-2.5,4.67-2.5,1.25,0,2.24.44,2.98,1.33s1.1,2.04,1.1,3.47Z"/>
    <path class="cls-1" d="m351.91,305.96c1.25,0,2.52.39,3.8,1.17l-.7,2.42c-.95-.57-1.96-.86-3.03-.86s-1.92.56-2.54,1.68c-.62,1.12-.94,2.76-.94,4.91s.33,3.81.98,4.95c.65,1.14,1.51,1.72,2.57,1.72s2.16-.36,3.3-1.09l.53,2.57c-1.3.83-2.63,1.25-3.97,1.25-1.73,0-3.15-.88-4.24-2.63-1.09-1.76-1.64-4.02-1.64-6.79s.55-5.01,1.64-6.73c1.09-1.72,2.5-2.57,4.24-2.57Z"/>
    <path class="cls-1" d="m363.55,321.95c1.34,0,2.68-.56,4.03-1.68l.81,2.34c-1.57,1.38-3.24,2.07-5.02,2.07s-3.19-.79-4.24-2.36c-1.04-1.57-1.57-3.84-1.57-6.81s.54-5.3,1.62-7c1.08-1.7,2.52-2.55,4.31-2.55,1.62,0,2.9.7,3.83,2.11.39.57.72,1.4.99,2.5.27,1.09.41,2.38.41,3.86l-.87,1.37h-7.91c.06,4.11,1.26,6.16,3.61,6.16Zm2.01-12.13c-.54-.88-1.25-1.33-2.14-1.33s-1.64.44-2.25,1.31-.99,2.05-1.12,3.53h6.32c0-1.46-.27-2.63-.81-3.51Z"/>
    <path class="cls-1" d="m381.69,302.24c-.3.43-.66.64-1.09.64s-.79-.21-1.09-.64c-.3-.43-.45-.94-.45-1.54s.15-1.11.46-1.54.67-.64,1.08-.64.77.21,1.08.64.46.94.46,1.54-.15,1.11-.45,1.54Zm-2.26,4.19h2.38v17.78h-2.38v-17.78Z"/>
    <path class="cls-1" d="m397.02,310.76v13.46h-2.38v-13.3c0-.68-.19-1.2-.57-1.56-.38-.36-.89-.55-1.52-.55-1.32,0-2.69.66-4.11,1.99v13.42h-2.38v-17.78h1.51l.7,2.03c1.43-1.66,2.99-2.5,4.67-2.5,1.25,0,2.24.44,2.98,1.33s1.1,2.04,1.1,3.47Z"/>
    <path class="cls-1" d="m420.39,324.21h-2.93l-5.86-22.31h-.14l-.54,22.31h-2.45l.77-26.91h3.67l6.12,23.28h.11l6.12-23.28h3.67l.77,26.91h-2.73l-.54-22.31h-.14l-5.89,22.31Z"/>
    <path class="cls-1" d="m440.86,313.57v-1.72c0-2.11-.8-3.16-2.39-3.16-1.25,0-2.56.56-3.93,1.68l-.83-2.34c1.59-1.38,3.31-2.07,5.15-2.07,1.29,0,2.35.45,3.17,1.35.83.9,1.24,2.28,1.24,4.15v12.75h-1.54l-.71-2.34c-.61.86-1.33,1.54-2.16,2.05-.84.51-1.59.76-2.28.76-1.18,0-2.12-.44-2.82-1.33-.7-.88-1.05-2.04-1.05-3.47,0-4.21,2.71-6.32,8.14-6.32Zm-5.45,4.97c-.12.35-.19.81-.19,1.37s.17,1.04.53,1.44.81.6,1.38.6c1.2,0,2.44-.73,3.73-2.18v-3.9c-2.39.05-3.97.55-4.73,1.48-.36.44-.6.84-.73,1.19Z"/>
    <path class="cls-1" d="m450.17,308.89v10.69c0,1.56.54,2.34,1.62,2.34.63,0,1.38-.25,2.25-.74l.31,2.61c-.93.6-1.91.9-2.93.9s-1.88-.42-2.56-1.27c-.68-.84-1.03-2.14-1.03-3.88v-10.65h-1.79v-2.46h1.79v-3.51l1.77-2.22h.57v5.73h3.67v2.46h-3.67Z"/>
    <path class="cls-1" d="m459.22,296.21v12.05c1.42-1.53,2.95-2.3,4.58-2.3,1.27,0,2.28.44,3.03,1.31s1.12,2.01,1.12,3.41v13.53h-2.42v-13.3c0-.68-.19-1.2-.58-1.56-.39-.36-.91-.55-1.55-.55-1.35,0-2.74.66-4.19,1.99v13.42h-2.42v-28h2.42Z"/>
    <path class="cls-1" d="m477.16,321.95c1.37,0,2.73-.56,4.1-1.68l.83,2.34c-1.59,1.38-3.3,2.07-5.11,2.07s-3.25-.79-4.31-2.36c-1.06-1.57-1.59-3.84-1.59-6.81s.55-5.3,1.65-7,2.56-2.55,4.38-2.55c1.65,0,2.95.7,3.9,2.11.4.57.74,1.4,1.01,2.5.27,1.09.41,2.38.41,3.86l-.88,1.37h-8.06c.06,4.11,1.28,6.16,3.67,6.16Zm2.05-12.13c-.55-.88-1.28-1.33-2.18-1.33s-1.67.44-2.29,1.31-1.01,2.05-1.14,3.53h6.43c0-1.46-.28-2.63-.83-3.51Z"/>
    <path class="cls-1" d="m487.66,308.46c1.4-1.66,2.96-2.5,4.67-2.5s2.88.91,3.5,2.73c1.5-1.82,3.08-2.73,4.73-2.73,1.21,0,2.18.44,2.89,1.33.71.88,1.07,2.04,1.07,3.47v13.46h-2.42v-13.3c0-.68-.18-1.2-.54-1.56-.36-.36-.84-.55-1.45-.55-1.23,0-2.55.69-3.96,2.07v13.34h-2.42v-13.3c0-.68-.18-1.2-.54-1.56-.36-.36-.84-.55-1.45-.55-1.27,0-2.57.66-3.9,1.99v13.42h-2.42v-17.78h1.54l.71,2.03Z"/>
    <path class="cls-1" d="m515.62,313.57v-1.72c0-2.11-.8-3.16-2.39-3.16-1.25,0-2.56.56-3.93,1.68l-.83-2.34c1.59-1.38,3.31-2.07,5.15-2.07,1.29,0,2.35.45,3.17,1.35.83.9,1.24,2.28,1.24,4.15v12.75h-1.54l-.71-2.34c-.61.86-1.33,1.54-2.16,2.05-.84.51-1.59.76-2.28.76-1.18,0-2.12-.44-2.82-1.33-.7-.88-1.05-2.04-1.05-3.47,0-4.21,2.71-6.32,8.14-6.32Zm-5.45,4.97c-.12.35-.19.81-.19,1.37s.17,1.04.53,1.44.81.6,1.38.6c1.2,0,2.44-.73,3.73-2.18v-3.9c-2.39.05-3.97.55-4.73,1.48-.36.44-.6.84-.73,1.19Z"/>
    <path class="cls-1" d="m524.93,308.89v10.69c0,1.56.54,2.34,1.62,2.34.63,0,1.38-.25,2.25-.74l.31,2.61c-.93.6-1.91.9-2.93.9s-1.88-.42-2.56-1.27c-.68-.84-1.03-2.14-1.03-3.88v-10.65h-1.79v-2.46h1.79v-3.51l1.77-2.22h.57v5.73h3.67v2.46h-3.67Z"/>
    <path class="cls-1" d="m534.21,302.24c-.3.43-.67.64-1.11.64s-.81-.21-1.11-.64c-.3-.43-.46-.94-.46-1.54s.16-1.11.47-1.54c.31-.43.68-.64,1.1-.64s.78.21,1.1.64.47.94.47,1.54-.15,1.11-.46,1.54Zm-2.31,4.19h2.42v17.78h-2.42v-17.78Z"/>
    <path class="cls-1" d="m543.75,305.96c1.27,0,2.56.39,3.87,1.17l-.71,2.42c-.97-.57-2-.86-3.09-.86s-1.96.56-2.59,1.68-.95,2.76-.95,4.91.33,3.81,1,4.95c.66,1.14,1.54,1.72,2.62,1.72s2.2-.36,3.36-1.09l.54,2.57c-1.33.83-2.68,1.25-4.04,1.25-1.76,0-3.2-.88-4.31-2.63-1.11-1.76-1.67-4.02-1.67-6.79s.56-5.01,1.67-6.73,2.55-2.57,4.31-2.57Z"/>
    <path class="cls-1" d="m557.5,313.57v-1.72c0-2.11-.8-3.16-2.39-3.16-1.25,0-2.56.56-3.93,1.68l-.83-2.34c1.59-1.38,3.31-2.07,5.15-2.07,1.29,0,2.35.45,3.17,1.35.83.9,1.24,2.28,1.24,4.15v12.75h-1.54l-.71-2.34c-.61.86-1.33,1.54-2.16,2.05-.84.51-1.59.76-2.28.76-1.18,0-2.12-.44-2.82-1.33-.7-.88-1.05-2.04-1.05-3.47,0-4.21,2.71-6.32,8.14-6.32Zm-5.45,4.97c-.12.35-.19.81-.19,1.37s.17,1.04.53,1.44.81.6,1.38.6c1.2,0,2.44-.73,3.73-2.18v-3.9c-2.39.05-3.97.55-4.73,1.48-.36.44-.6.84-.73,1.19Z"/>
    <path class="cls-1" d="m563.22,296.21h2.33v28h-2.33v-28Z"/>
    <path class="cls-1" d="m586.56,300.62c-1.3-.62-2.52-.94-3.63-.94s-2.03.4-2.74,1.21c-.71.81-1.06,1.78-1.06,2.92,0,1.64.62,2.93,1.87,3.86l3.94,3.04c2.2,1.72,3.3,3.93,3.3,6.63,0,2.24-.57,4.02-1.71,5.34-1.14,1.33-2.74,1.99-4.81,1.99s-3.92-.52-5.57-1.56l.7-2.73c1.53.94,3.03,1.4,4.52,1.4s2.58-.4,3.29-1.21c.71-.81,1.06-1.78,1.06-2.92,0-1.64-.62-2.92-1.87-3.86l-3.94-3.04c-2.2-1.72-3.3-3.93-3.3-6.63,0-2.24.57-4.02,1.71-5.34s2.67-1.99,4.59-1.99c1.3,0,2.77.38,4.39,1.13l-.73,2.69Z"/>
    <path class="cls-1" d="m596.38,305.96c1.25,0,2.52.39,3.8,1.17l-.7,2.42c-.95-.57-1.96-.86-3.03-.86s-1.92.56-2.54,1.68c-.62,1.12-.94,2.76-.94,4.91s.33,3.81.98,4.95c.65,1.14,1.51,1.72,2.57,1.72s2.16-.36,3.3-1.09l.53,2.57c-1.3.83-2.63,1.25-3.97,1.25-1.73,0-3.15-.88-4.24-2.63-1.09-1.76-1.64-4.02-1.64-6.79s.54-5.01,1.64-6.73,2.5-2.57,4.24-2.57Z"/>
    <path class="cls-1" d="m605.38,302.24c-.3.43-.66.64-1.09.64s-.79-.21-1.09-.64c-.3-.43-.45-.94-.45-1.54s.15-1.11.46-1.54.67-.64,1.08-.64.77.21,1.08.64.46.94.46,1.54-.15,1.11-.45,1.54Zm-2.26,4.19h2.38v17.78h-2.38v-17.78Z"/>
    <path class="cls-1" d="m614.86,321.95c1.34,0,2.68-.56,4.03-1.68l.81,2.34c-1.57,1.38-3.24,2.07-5.02,2.07s-3.19-.79-4.24-2.36c-1.04-1.57-1.57-3.84-1.57-6.81s.54-5.3,1.62-7c1.08-1.7,2.52-2.55,4.31-2.55,1.62,0,2.9.7,3.83,2.11.39.57.72,1.4.99,2.5.27,1.09.41,2.38.41,3.86l-.87,1.37h-7.91c.06,4.11,1.26,6.16,3.61,6.16Zm2.01-12.13c-.54-.88-1.25-1.33-2.14-1.33s-1.64.44-2.25,1.31-.99,2.05-1.12,3.53h6.32c0-1.46-.27-2.63-.81-3.51Z"/>
    <path class="cls-1" d="m633.93,310.76v13.46h-2.38v-13.3c0-.68-.19-1.2-.57-1.56-.38-.36-.89-.55-1.52-.55-1.32,0-2.69.66-4.11,1.99v13.42h-2.38v-17.78h1.51l.7,2.03c1.43-1.66,2.99-2.5,4.67-2.5,1.25,0,2.24.44,2.98,1.33s1.1,2.04,1.1,3.47Z"/>
    <path class="cls-1" d="m642.85,305.96c1.25,0,2.52.39,3.8,1.17l-.7,2.42c-.95-.57-1.96-.86-3.03-.86s-1.92.56-2.54,1.68c-.62,1.12-.94,2.76-.94,4.91s.33,3.81.98,4.95c.65,1.14,1.51,1.72,2.57,1.72s2.16-.36,3.3-1.09l.53,2.57c-1.3.83-2.63,1.25-3.97,1.25-1.73,0-3.15-.88-4.24-2.63-1.09-1.76-1.64-4.02-1.64-6.79s.54-5.01,1.64-6.73,2.5-2.57,4.24-2.57Z"/>
    <path class="cls-1" d="m654.48,321.95c1.34,0,2.68-.56,4.03-1.68l.81,2.34c-1.57,1.38-3.24,2.07-5.02,2.07s-3.19-.79-4.24-2.36c-1.04-1.57-1.57-3.84-1.57-6.81s.54-5.3,1.62-7c1.08-1.7,2.52-2.55,4.31-2.55,1.62,0,2.9.7,3.83,2.11.39.57.72,1.4.99,2.5.27,1.09.41,2.38.41,3.86l-.87,1.37h-7.91c.06,4.11,1.26,6.16,3.61,6.16Zm2.01-12.13c-.54-.88-1.25-1.33-2.14-1.33s-1.64.44-2.25,1.31-.99,2.05-1.12,3.53h6.32c0-1.46-.27-2.63-.81-3.51Z"/>
    <path class="cls-1" d="m669.14,309.55c-.95-.57-1.85-.86-2.68-.86-1.62,0-2.43.69-2.43,2.07,0,1.2,1.08,2.35,3.24,3.47.8.42,1.54,1.07,2.22,1.95.68.88,1.02,1.95,1.02,3.2,0,1.79-.42,3.13-1.26,4-.84.87-2,1.31-3.5,1.31s-2.95-.57-4.36-1.72l.7-2.42c1.17.94,2.51,1.4,4,1.4.63,0,1.15-.19,1.54-.57s.59-.89.59-1.54-.22-1.21-.67-1.68-.99-.88-1.62-1.25-1.27-.76-1.9-1.19-1.17-1.03-1.62-1.81-.67-1.7-.67-2.77c0-1.66.41-2.94,1.22-3.84.81-.9,1.84-1.35,3.09-1.35s2.52.39,3.8,1.17l-.7,2.42Z"/>
  </g>
</svg>