<?xml version="1.0" encoding="UTF-8"?>
<svg id="a" data-name="Layer 1" xmlns="http://www.w3.org/2000/svg" viewBox="0 0 22 22" fill="white">
  <path d="m16,22H6c-3.3,0-6-2.7-6-6V6C0,2.7,2.7,0,6,0h10c3.3,0,6,2.7,6,6v10c0,3.3-2.7,6-6,6ZM6,2c-2.2,0-4,1.8-4,4v10c0,2.2,1.8,4,4,4h10c2.2,0,4-1.8,4-4V6c0-2.2-1.8-4-4-4H6Z"/>
  <path d="m11,16c-1.1,0-2.1-.3-3-1-1.1-.8-1.8-2-2-3.3-.3-2.7,1.6-5.3,4.3-5.7.5-.1,1-.1,1.5,0,2.2.3,3.9,2,4.2,4.2h0c.2,1.3-.1,2.6-.9,3.7-.8,1.1-2,1.8-3.3,2-.3,0-.5.1-.8.1Zm0-8h-.4c-1.6.2-2.8,1.8-2.5,3.4.2,1.6,1.8,2.8,3.4,2.5.8-.1,1.5-.5,2-1.2s.7-1.4.6-2.2h0c-.2-1.3-1.2-2.3-2.5-2.5h-.6Z"/>
  <path d="m16.5,6.5c-.6,0-1-.4-1-1s.4-1,1-1h0c.6,0,1,.4,1,1s-.4,1-1,1Z"/>
</svg>